<?xml version="1.0" encoding="utf-8"?>
<!-- Generator: Adobe Illustrator 16.0.0, SVG Export Plug-In . SVG Version: 6.00 Build 0)  -->
<!DOCTYPE svg PUBLIC "-//W3C//DTD SVG 1.1//EN" "http://www.w3.org/Graphics/SVG/1.1/DTD/svg11.dtd">
<svg version="1.1" id="Calque_2" xmlns="http://www.w3.org/2000/svg" xmlns:xlink="http://www.w3.org/1999/xlink" x="0px" y="0px"
	 width="83px" height="83px" viewBox="0 0 83 83" enable-background="new 0 0 83 83" xml:space="preserve">
<g>
	<g>
		<g>
			<polygon fill="none" stroke="#394553" stroke-width="2" points="40.743,78.082 9.348,45.638 40.743,45.638 72.137,45.638 			"/>
			<polyline fill="none" stroke="#394553" stroke-width="2" points="52.992,49.371 40.743,78.082 28.48,49.335 26.905,45.638 			"/>
		</g>
		<g>
			<polygon fill="none" stroke="#394553" stroke-width="2" points="9.348,45.732 40.743,45.732 72.137,45.732 63.501,33.049 
				17.988,33.049 			"/>
			<polyline fill="none" stroke="#394553" stroke-width="2" points="51.069,42.479 40.743,32.922 26.905,45.732 			"/>
			<line fill="none" stroke="#394553" stroke-width="2" x1="26.791" y1="45.732" x2="20.399" y2="36.5"/>
			<polygon fill="none" stroke="#394553" stroke-width="2" points="54.7,45.732 63.48,33.049 63.501,33.049 72.137,45.732 			"/>
		</g>
	</g>
	<g>
		<line fill="none" stroke="#394553" stroke-width="2" x1="73.009" y1="13.108" x2="64.613" y2="21.506"/>
		<line fill="none" stroke="#394553" stroke-width="2" x1="73.011" y1="21.506" x2="64.613" y2="13.108"/>
	</g>
	<g>
		<line fill="none" stroke="#394553" stroke-width="2" x1="58.812" y1="22.871" x2="53.582" y2="28.103"/>
		<line fill="none" stroke="#394553" stroke-width="2" x1="58.813" y1="28.103" x2="53.582" y2="22.871"/>
	</g>
</g>
</svg>
