<?xml version="1.0" encoding="utf-8"?>
<!-- Generator: Adobe Illustrator 16.0.0, SVG Export Plug-In . SVG Version: 6.00 Build 0)  -->
<!DOCTYPE svg PUBLIC "-//W3C//DTD SVG 1.1//EN" "http://www.w3.org/Graphics/SVG/1.1/DTD/svg11.dtd">
<svg version="1.1" id="Calque_2" xmlns="http://www.w3.org/2000/svg" xmlns:xlink="http://www.w3.org/1999/xlink" x="0px" y="0px"
	 width="83px" height="83px" viewBox="0 0 83 83" enable-background="new 0 0 83 83" xml:space="preserve">
<g>
	<g>
		<path fill="none" stroke="#394553" stroke-width="2" d="M68.222,34.426c2.492-6.141,1.247-13.443-3.735-18.423l-0.248-0.252
			c-6.641-6.641-17.409-6.641-24.05,0l-1.827,1.828l-1.825-1.828c-6.641-6.641-17.41-6.641-24.051,0l-0.252,0.252
			c-6.639,6.64-6.639,17.408,0,24.048l1.827,1.827L38.362,66.18l4.764-4.764"/>
	</g>
	<path fill="none" stroke="#394553" stroke-width="2" d="M75.464,39.358c-4.166-2.423-5.262-2.522-11.094-0.984
		c-0.878,0.229-1.642,0.363-2.342,0.44c-0.698-0.077-1.467-0.211-2.345-0.44c-5.831-1.538-6.922-1.438-11.091,0.984
		c-3.653,1.925-5.756,7.502-4.711,13.767c1.207,7.245,4.001,7.749,4.001,15.596c0,7.802,2.83,11.7,5.108,11.7
		s3.422-2.674,5.918-9.358c1.713-4.583,4.253-5.312,6.239,0c2.499,6.685,3.641,9.358,5.918,9.358c2.277,0,5.105-3.897,5.105-11.7
		c0-7.827,2.783-8.275,4.003-15.596C81.22,46.86,79.118,41.283,75.464,39.358z"/>
	<path fill="none" stroke="#394553" stroke-width="2" d="M48.759,53.134c-0.768-4.606,0.674-8.36,2.512-9.329l0.153-0.084
		c2.122-1.233,2.753-1.432,3.443-1.432"/>
	<g>
		<line fill="none" stroke="#394553" stroke-width="2" x1="55.819" y1="25.851" x2="55.819" y2="32.197"/>
		<line fill="none" stroke="#394553" stroke-width="2" x1="47.884" y1="26.919" x2="50.054" y2="32.883"/>
		<line fill="none" stroke="#394553" stroke-width="2" x1="40.792" y1="30.636" x2="44.872" y2="35.498"/>
		<line fill="none" stroke="#394553" stroke-width="2" x1="35.401" y1="36.555" x2="40.896" y2="39.728"/>
		<line fill="none" stroke="#394553" stroke-width="2" x1="32.356" y1="43.96" x2="38.607" y2="45.063"/>
		<line fill="none" stroke="#394553" stroke-width="2" x1="32.031" y1="51.96" x2="38.28" y2="50.859"/>
		<line fill="none" stroke="#394553" stroke-width="2" x1="34.459" y1="59.589" x2="39.955" y2="56.417"/>
	</g>
</g>
</svg>
