<?xml version="1.0" encoding="utf-8"?>
<!-- Generator: Adobe Illustrator 16.0.0, SVG Export Plug-In . SVG Version: 6.00 Build 0)  -->
<!DOCTYPE svg PUBLIC "-//W3C//DTD SVG 1.1//EN" "http://www.w3.org/Graphics/SVG/1.1/DTD/svg11.dtd">
<svg version="1.1" id="Calque_2" xmlns="http://www.w3.org/2000/svg" xmlns:xlink="http://www.w3.org/1999/xlink" x="0px" y="0px"
	 width="82.999px" height="83px" viewBox="0 0 82.999 83" enable-background="new 0 0 82.999 83" xml:space="preserve">
<g>
	<g>
		<g>
			<g>
				<circle fill="#394553" stroke="#394553" stroke-width="2.5" stroke-miterlimit="10" cx="29.589" cy="27.763" r="0.75"/>
			</g>
		</g>
		<g>
			<g>
				<circle fill="#394553" stroke="#394553" stroke-width="2.5" stroke-miterlimit="10" cx="53.41" cy="27.763" r="0.75"/>
			</g>
		</g>
	</g>
	<g>
		
			<path fill="none" stroke="#394553" stroke-width="2.5" stroke-linecap="round" stroke-linejoin="round" stroke-miterlimit="10" d="
			M34.305,35.896c1.504,2.134,4.16,3.558,7.195,3.558c3.033,0,5.689-1.424,7.193-3.558"/>
	</g>
	<path fill="none" stroke="#394553" stroke-width="2.5" stroke-linecap="round" stroke-miterlimit="10" d="M48.534,21.729
		c-4.896-0.755-7.883-3.161-7.883-3.161c-5.607-4.845-12.857-5.89-18.705-1.338c-5.846,4.552-7.035,13.065-2.957,19.366
		c0,0,7.256,11.281,8.004,23.104c0,0-0.057,6.371,5.479,8.275c0,0,1.721,0.814,2.693,0.695c1.957-0.242,2.326-3.076,2.135-10.606
		c0,0-0.402-10.923,4.201-10.923c4.602,0,4.2,10.923,4.2,10.923c-0.192,7.53,0.177,10.364,2.135,10.606
		c0.972,0.119,2.693-0.695,2.693-0.695c5.534-1.904,5.477-8.275,5.477-8.275c0.748-11.823,8.004-23.104,8.004-23.104
		c4.078-6.301,2.889-14.814-2.957-19.366c-4.533-3.528-9.908-3.694-14.707-1.333"/>
</g>
</svg>
