<?xml version="1.0" encoding="utf-8"?>
<!-- Generator: Adobe Illustrator 16.0.0, SVG Export Plug-In . SVG Version: 6.00 Build 0)  -->
<!DOCTYPE svg PUBLIC "-//W3C//DTD SVG 1.1//EN" "http://www.w3.org/Graphics/SVG/1.1/DTD/svg11.dtd">
<svg version="1.1" id="Calque_2" xmlns="http://www.w3.org/2000/svg" xmlns:xlink="http://www.w3.org/1999/xlink" x="0px" y="0px"
	 width="83px" height="83px" viewBox="0 0 83 83" enable-background="new 0 0 83 83" xml:space="preserve">
<g>
	<g>
		<path fill="#61AAD1" d="M27.55,38.131c-1.355,0.104-1.979,2.502-2.71,4.483c-0.729,1.98-1.46,1.459-1.46,1.459
			c-1.981-2.606-1.981-10.427-1.981-10.427c-1.355-2.502-1.148-5.536-1.148-5.536c-0.158-3.399,3.24-3.241,4.744-2.45
			c1.502,0.791,2.371,1.027,2.371,1.027h0.996c0,0,0.869-0.236,2.373-1.027c1.502-0.791,4.902-0.949,4.742,2.45
			c0,0,0.206,3.034-1.148,5.536c0,0,0,7.82-1.98,10.427c0,0-0.73,0.521-1.461-1.459c-0.729-1.981-1.354-4.38-2.711-4.483H27.55z"/>
	</g>
	<path fill="#9B9B9B" d="M27.863,52.73c-8.884,0-16.111-7.227-16.111-16.11V18.465c0-0.69,0.56-1.25,1.25-1.25h8.471
		c0.69,0,1.25,0.56,1.25,1.25s-0.56,1.25-1.25,1.25h-7.221V36.62c0,7.505,6.105,13.61,13.611,13.61s13.611-6.105,13.611-13.61
		V19.715h-7.131c-0.69,0-1.25-0.56-1.25-1.25s0.56-1.25,1.25-1.25h8.381c0.69,0,1.25,0.56,1.25,1.25V36.62
		C43.975,45.503,36.747,52.73,27.863,52.73z"/>
	<g>
		<g>
			<circle fill="#FFFFFF" cx="21.206" cy="18.465" r="2.397"/>
			<path fill="#9B9B9B" d="M21.207,22.111c-2.012,0-3.648-1.636-3.648-3.646s1.637-3.646,3.648-3.646
				c2.011,0,3.646,1.636,3.646,3.646S23.218,22.111,21.207,22.111z M21.207,17.318c-0.633,0-1.148,0.514-1.148,1.146
				s0.516,1.146,1.148,1.146s1.146-0.514,1.146-1.146S21.84,17.318,21.207,17.318z"/>
		</g>
		<g>
			<circle fill="#FFFFFF" cx="34.521" cy="18.465" r="2.396"/>
			<path fill="#9B9B9B" d="M34.521,22.111c-2.011,0-3.646-1.636-3.646-3.646s1.636-3.646,3.646-3.646s3.646,1.636,3.646,3.646
				S36.532,22.111,34.521,22.111z M34.521,17.318c-0.633,0-1.146,0.514-1.146,1.146s0.514,1.146,1.146,1.146
				s1.146-0.514,1.146-1.146S35.154,17.318,34.521,17.318z"/>
		</g>
	</g>
	<path fill="#61AAD1" d="M46.117,68.182H33.903c-4.02,0-7.29-3.271-7.29-7.289V51.48c0-0.69,0.56-1.25,1.25-1.25
		s1.25,0.56,1.25,1.25v9.413c0,2.641,2.148,4.789,4.79,4.789h12.214c2.641,0,4.789-2.148,4.789-4.789V33.025
		c0-4.019,2.651-7.289,5.91-7.289h4.66c0.69,0,1.25,0.56,1.25,1.25s-0.56,1.25-1.25,1.25h-4.66c-1.849,0-3.41,2.193-3.41,4.789
		v27.868C53.406,64.912,50.137,68.182,46.117,68.182z"/>
	<g>
		<g>
			<circle fill="#FFFFFF" cx="63.074" cy="27.785" r="6.924"/>
			<path fill="#61AAD1" d="M63.075,35.959c-4.508,0-8.175-3.667-8.175-8.174s3.667-8.174,8.175-8.174
				c4.507,0,8.173,3.667,8.173,8.174S67.582,35.959,63.075,35.959z M63.075,22.111c-3.129,0-5.675,2.545-5.675,5.674
				s2.546,5.674,5.675,5.674c3.128,0,5.673-2.545,5.673-5.674S66.203,22.111,63.075,22.111z"/>
		</g>
		<circle fill="#9B9B9B" cx="63.075" cy="27.785" r="3.6"/>
	</g>
	<g>
		<path fill="#61AAD1" d="M27.863,53.48c-3.707,0-7.227-1.182-10.177-3.418c-0.88-0.667-1.054-1.921-0.386-2.802
			c0.668-0.88,1.922-1.053,2.802-0.386c2.249,1.705,4.933,2.605,7.761,2.605c2.826,0,5.51-0.901,7.762-2.606
			c0.881-0.667,2.135-0.493,2.801,0.387c0.668,0.881,0.494,2.135-0.387,2.802C35.087,52.299,31.568,53.48,27.863,53.48z"/>
	</g>
</g>
</svg>
