<?xml version="1.0" encoding="utf-8"?>
<!-- Generator: Adobe Illustrator 16.0.0, SVG Export Plug-In . SVG Version: 6.00 Build 0)  -->
<!DOCTYPE svg PUBLIC "-//W3C//DTD SVG 1.1//EN" "http://www.w3.org/Graphics/SVG/1.1/DTD/svg11.dtd">
<svg version="1.1" id="Calque_2" xmlns="http://www.w3.org/2000/svg" xmlns:xlink="http://www.w3.org/1999/xlink" x="0px" y="0px"
	 width="83px" height="83px" viewBox="0 0 83 83" enable-background="new 0 0 83 83" xml:space="preserve">
<g>
	<g>
		<rect x="17.759" y="10.843" fill="#FFFFFF" width="39.605" height="58.276"/>
		<path fill="#9B9B9B" d="M57.364,70.369H17.759c-0.69,0-1.25-0.56-1.25-1.25V10.843c0-0.69,0.56-1.25,1.25-1.25h39.605
			c0.69,0,1.25,0.56,1.25,1.25v58.276C58.614,69.81,58.055,70.369,57.364,70.369z M19.009,67.869h37.105V12.093H19.009V67.869z"/>
	</g>
	<rect x="23.378" y="17.57" fill="#F0F0F0" width="28.367" height="44.823"/>
	<g>
		<g>
			<polygon fill="#FFFFFF" points="60.722,58.912 60.722,72.156 54.892,68.434 49.062,72.156 49.062,58.912 			"/>
			<path fill="#61AAD1" d="M60.722,73.406c-0.234,0-0.468-0.065-0.673-0.196l-5.157-3.293l-5.157,3.293
				c-0.385,0.246-0.872,0.263-1.273,0.043c-0.4-0.22-0.649-0.64-0.649-1.097V58.912c0-0.69,0.56-1.25,1.25-1.25h11.66
				c0.69,0,1.25,0.56,1.25,1.25v13.244c0,0.457-0.249,0.877-0.649,1.097C61.135,73.355,60.928,73.406,60.722,73.406z M54.892,67.184
				c0.233,0,0.468,0.065,0.673,0.196l3.907,2.495v-9.713h-9.16v9.713l3.907-2.495C54.424,67.249,54.658,67.184,54.892,67.184z"/>
		</g>
		<g>
			<polygon fill="#FFFFFF" points="54.892,43.513 57.923,46.544 62.21,46.544 62.21,50.832 65.241,53.863 62.21,56.895 
				62.21,61.182 57.923,61.182 54.892,64.213 51.86,61.182 47.573,61.182 47.573,56.895 44.542,53.863 47.573,50.832 47.573,46.544 
				51.86,46.544 			"/>
			<path fill="#61AAD1" d="M54.892,65.463c-0.32,0-0.64-0.122-0.884-0.366l-2.665-2.665h-3.77c-0.69,0-1.25-0.56-1.25-1.25v-3.77
				l-2.665-2.665c-0.488-0.488-0.488-1.279,0-1.768l2.665-2.666v-3.77c0-0.69,0.56-1.25,1.25-1.25h3.77l2.665-2.665
				c0.488-0.488,1.279-0.488,1.768,0l2.665,2.665h3.77c0.69,0,1.25,0.56,1.25,1.25v3.77l2.665,2.666c0.488,0.488,0.488,1.28,0,1.768
				l-2.665,2.665v3.77c0,0.69-0.56,1.25-1.25,1.25h-3.77l-2.665,2.665C55.531,65.341,55.212,65.463,54.892,65.463z M48.823,59.932
				h3.037c0.331,0,0.649,0.132,0.884,0.366l2.147,2.147l2.147-2.147c0.234-0.234,0.553-0.366,0.884-0.366h3.037v-3.037
				c0-0.332,0.132-0.649,0.366-0.884l2.147-2.147l-2.147-2.148c-0.234-0.234-0.366-0.552-0.366-0.884v-3.037h-3.037
				c-0.331,0-0.649-0.132-0.884-0.366l-2.147-2.147l-2.147,2.147c-0.234,0.234-0.553,0.366-0.884,0.366h-3.037v3.037
				c0,0.332-0.132,0.649-0.366,0.884l-2.147,2.148l2.147,2.147c0.234,0.234,0.366,0.552,0.366,0.884V59.932z"/>
		</g>
	</g>
	<g>
		<path fill="#61AAD1" d="M41.997,33.982H25.149c-0.607,0-1.1-0.493-1.1-1.1s0.492-1.1,1.1-1.1h16.848c0.607,0,1.1,0.493,1.1,1.1
			S42.604,33.982,41.997,33.982z"/>
		<path fill="#61AAD1" d="M46.054,39.506H25.149c-0.607,0-1.1-0.493-1.1-1.1s0.492-1.1,1.1-1.1h20.904c0.607,0,1.1,0.493,1.1,1.1
			S46.661,39.506,46.054,39.506z"/>
		<path fill="#61AAD1" d="M41.544,45.027H25.149c-0.607,0-1.1-0.493-1.1-1.1s0.492-1.1,1.1-1.1h16.395c0.607,0,1.1,0.493,1.1,1.1
			S42.151,45.027,41.544,45.027z"/>
	</g>
	<polygon fill="#61AAD1" points="39.296,24.263 39.296,21.33 42.231,21.33 42.231,17.859 39.296,17.859 39.296,14.923 
		35.825,14.923 35.825,17.859 32.892,17.859 32.892,21.33 35.825,21.33 35.825,24.263 	"/>
</g>
</svg>
