<?xml version="1.0" encoding="utf-8"?>
<!-- Generator: Adobe Illustrator 16.0.0, SVG Export Plug-In . SVG Version: 6.00 Build 0)  -->
<!DOCTYPE svg PUBLIC "-//W3C//DTD SVG 1.1//EN" "http://www.w3.org/Graphics/SVG/1.1/DTD/svg11.dtd">
<svg version="1.1" id="Calque_2" xmlns="http://www.w3.org/2000/svg" xmlns:xlink="http://www.w3.org/1999/xlink" x="0px" y="0px"
	 width="83px" height="83px" viewBox="0 0 83 83" enable-background="new 0 0 83 83" xml:space="preserve">
<g>
	<g>
		<g>
			
				<path fill="none" stroke="#394553" stroke-width="2.5" stroke-linecap="round" stroke-linejoin="round" stroke-miterlimit="10" d="
				M70.413,32.047V18.131c-13.534-0.053-16.32-7.441-16.32-7.441s-2.916,7.366-16.45,7.314V31.92c0,0-1.171,15.029,16.277,23.668
				C71.433,47.084,70.413,32.047,70.413,32.047z"/>
			
				<polyline fill="none" stroke="#394553" stroke-width="2.5" stroke-linecap="round" stroke-linejoin="round" stroke-miterlimit="10" points="
				46.686,32.908 52.556,38.823 61.353,26.717 			"/>
		</g>
	</g>
	<g>
		<path fill="none" stroke="#394553" stroke-width="2.5" stroke-linecap="round" stroke-miterlimit="10" d="M31.945,31.973
			c-4.513-3.898-10.349-4.74-15.056-1.076c-4.705,3.664-5.661,10.517-2.379,15.588c0,0,5.84,9.079,6.442,18.596
			c0,0-0.045,5.129,4.408,6.66c0,0,1.386,0.656,2.168,0.561c1.577-0.194,1.873-2.476,1.718-8.538c0,0-0.323-8.79,3.382-8.79
			c3.704,0,3.383,8.79,3.383,8.79c-0.157,6.063,0.14,8.344,1.717,8.538c0.781,0.096,2.168-0.561,2.168-0.561
			c4.453-1.531,4.407-6.66,4.407-6.66c0.179-2.825,0.819-5.61,1.632-8.133"/>
	</g>
</g>
</svg>
