<?xml version="1.0" encoding="utf-8"?>
<!-- Generator: Adobe Illustrator 16.0.0, SVG Export Plug-In . SVG Version: 6.00 Build 0)  -->
<!DOCTYPE svg PUBLIC "-//W3C//DTD SVG 1.1//EN" "http://www.w3.org/Graphics/SVG/1.1/DTD/svg11.dtd">
<svg version="1.1" id="Calque_2" xmlns="http://www.w3.org/2000/svg" xmlns:xlink="http://www.w3.org/1999/xlink" x="0px" y="0px"
	 width="83px" height="83px" viewBox="0 0 83 83" enable-background="new 0 0 83 83" xml:space="preserve">
<polyline fill="none" stroke="#394553" stroke-width="2" stroke-miterlimit="10" points="28.771,66.954 25.024,69.96 24.843,66.375 
	19.573,68.237 22.114,63.549 15.954,62.443 21.384,59.249 17.991,56.343 22.069,56.159 22.603,52.332 25.784,54.682 "/>
<g>
	<path fill="none" stroke="#394553" stroke-width="2.5" stroke-linecap="round" stroke-linejoin="round" stroke-miterlimit="10" d="
		M32.954,47.308c0.037,1.511-3.361,6.718-3.361,6.718s-2.227,4.689,0.643,6.328c0.576,0.145,6.982,0.043,22.359-3.263
		c0,0,1.488,0.827,2.428,8.86"/>
	<path fill="none" stroke="#394553" stroke-width="2.5" stroke-linecap="round" stroke-linejoin="round" stroke-miterlimit="10" d="
		M37.575,10.002c0,0-1.99,5.191-3.588,7.551l-8.637,10.152c0,0-1.15,3.02,2.299,3.307l5.266,1.086c0,0,0.221,2.936-0.09,5.372"/>
</g>
<path fill="none" stroke="#394553" stroke-width="2.5" stroke-linecap="round" stroke-linejoin="round" stroke-miterlimit="10" d="
	M33.312,37.642c0,0,17.996,3.8,15.162,7.58c0,0-0.328,2.011-14.498,2.011"/>
</svg>
