<?xml version="1.0" encoding="utf-8"?>
<!-- Generator: Adobe Illustrator 16.0.0, SVG Export Plug-In . SVG Version: 6.00 Build 0)  -->
<!DOCTYPE svg PUBLIC "-//W3C//DTD SVG 1.1//EN" "http://www.w3.org/Graphics/SVG/1.1/DTD/svg11.dtd">
<svg version="1.1" id="Calque_2" xmlns="http://www.w3.org/2000/svg" xmlns:xlink="http://www.w3.org/1999/xlink" x="0px" y="0px"
	 width="83px" height="83px" viewBox="0 0 83 83" enable-background="new 0 0 83 83" xml:space="preserve">
<g>
	<g>
		<path fill="none" stroke="#394553" stroke-width="2" stroke-linecap="round" stroke-miterlimit="10" d="M46.842,40.462
			c-3.719-0.574-5.988-2.401-5.988-2.401c-4.258-3.68-9.764-4.474-14.205-1.018c-4.439,3.458-5.344,9.925-2.246,14.71
			c0,0,5.51,8.568,6.078,17.549c0,0-0.043,4.838,4.162,6.285c0,0,1.307,0.617,2.045,0.527c1.486-0.184,1.768-2.336,1.621-8.057
			c0,0-0.305-8.297,3.189-8.297c3.496,0,3.193,8.297,3.193,8.297c-0.146,5.721,0.133,7.873,1.619,8.057
			c0.738,0.09,2.047-0.527,2.047-0.527c4.203-1.447,4.16-6.285,4.16-6.285c0.568-8.98,6.078-17.549,6.078-17.549
			c3.098-4.785,2.195-11.253-2.244-14.71c-3.443-2.679-7.525-2.806-11.172-1.011"/>
	</g>
	<g>
		<polyline fill="none" stroke="#394553" stroke-width="2" stroke-linecap="round" stroke-miterlimit="10" points="25.292,15.65 
			28.698,23.596 28.698,28.921 54.299,28.921 54.299,23.596 59.668,9.03 49.249,15.771 41.508,6.876 41.489,6.876 33.752,15.771 
			23.331,9.03 		"/>
		
			<line fill="none" stroke="#394553" stroke-width="2" stroke-linecap="round" stroke-miterlimit="10" x1="54.086" y1="23.861" x2="33.506" y2="23.861"/>
	</g>
</g>
</svg>
