<?xml version="1.0" encoding="utf-8"?>
<!-- Generator: Adobe Illustrator 16.0.0, SVG Export Plug-In . SVG Version: 6.00 Build 0)  -->
<!DOCTYPE svg PUBLIC "-//W3C//DTD SVG 1.1//EN" "http://www.w3.org/Graphics/SVG/1.1/DTD/svg11.dtd">
<svg version="1.1" id="Calque_2" xmlns="http://www.w3.org/2000/svg" xmlns:xlink="http://www.w3.org/1999/xlink" x="0px" y="0px"
	 width="83px" height="83px" viewBox="0 0 83 83" enable-background="new 0 0 83 83" xml:space="preserve">
<g>
	<g>
		<path fill="#9B9B9B" d="M53.691,22.549c-0.69,0-1.25-0.56-1.25-1.25V10.492c0-0.69,0.56-1.25,1.25-1.25s1.25,0.56,1.25,1.25
			v10.807C54.941,21.989,54.382,22.549,53.691,22.549z"/>
		<g>
			<path fill="#FFFFFF" d="M55.463,29.803c0,0.979-0.793,1.771-1.771,1.771l0,0c-0.979,0-1.771-0.793-1.771-1.771v-7.971
				c0-0.979,0.793-1.771,1.771-1.771l0,0c0.979,0,1.771,0.793,1.771,1.771V29.803z"/>
			<path fill="#9B9B9B" d="M53.691,32.824c-1.666,0-3.021-1.355-3.021-3.021v-7.971c0-1.666,1.355-3.021,3.021-3.021
				s3.021,1.355,3.021,3.021v7.971C56.713,31.469,55.357,32.824,53.691,32.824z M53.691,21.311c-0.287,0-0.521,0.234-0.521,0.521
				v7.971c0,0.288,0.234,0.521,0.521,0.521s0.521-0.234,0.521-0.521v-7.971C54.213,21.544,53.979,21.311,53.691,21.311z"/>
		</g>
		<g>
			<line fill="#FFFFFF" x1="45.721" y1="71.967" x2="61.664" y2="71.967"/>
			<path fill="#9B9B9B" d="M61.664,73.217H45.721c-0.69,0-1.25-0.56-1.25-1.25s0.56-1.25,1.25-1.25h15.943
				c0.69,0,1.25,0.56,1.25,1.25S62.354,73.217,61.664,73.217z"/>
		</g>
		<g>
			<polyline fill="#FFFFFF" points="50.326,71.436 50.326,52.834 57.059,52.834 57.059,71.436 			"/>
			<path fill="#9B9B9B" d="M57.059,72.686c-0.69,0-1.25-0.56-1.25-1.25V54.084h-4.232v17.352c0,0.69-0.56,1.25-1.25,1.25
				s-1.25-0.56-1.25-1.25V52.834c0-0.69,0.56-1.25,1.25-1.25h6.732c0.69,0,1.25,0.56,1.25,1.25v18.602
				C58.309,72.126,57.749,72.686,57.059,72.686z"/>
		</g>
		<g>
			<polyline fill="#FFFFFF" points="47.668,56.2 47.668,26.437 59.715,26.437 59.715,56.2 			"/>
			<path fill="#61AAD1" d="M59.715,57.45c-0.69,0-1.25-0.56-1.25-1.25V27.687h-9.547V56.2c0,0.69-0.56,1.25-1.25,1.25
				s-1.25-0.56-1.25-1.25V26.437c0-0.69,0.56-1.25,1.25-1.25h12.047c0.69,0,1.25,0.56,1.25,1.25V56.2
				C60.965,56.891,60.405,57.45,59.715,57.45z"/>
		</g>
		<rect x="50.334" y="29.607" fill="#61AAD1" width="6.717" height="16.596"/>
		<g>
			<line fill="#FFFFFF" x1="42.531" y1="56.555" x2="64.854" y2="56.555"/>
			<path fill="#9B9B9B" d="M64.854,57.805H42.531c-0.69,0-1.25-0.56-1.25-1.25s0.56-1.25,1.25-1.25h22.322
				c0.69,0,1.25,0.56,1.25,1.25S65.544,57.805,64.854,57.805z"/>
		</g>
	</g>
	<g>
		<g>
			<path fill="#FFFFFF" d="M18.146,72.508V36.042c0-3.739,3.031-6.771,6.771-6.771h4.23c3.74,0,6.771,3.031,6.771,6.771v36.466
				H18.146z"/>
			<path fill="#9B9B9B" d="M35.92,73.758H18.146c-0.69,0-1.25-0.56-1.25-1.25V36.042c0-4.422,3.599-8.021,8.021-8.021h4.23
				c4.423,0,8.021,3.598,8.021,8.021v36.466C37.17,73.199,36.61,73.758,35.92,73.758z M19.396,71.258H34.67V36.042
				c0-3.044-2.477-5.521-5.521-5.521h-4.23c-3.045,0-5.521,2.477-5.521,5.521V71.258z"/>
		</g>
		<g>
			<g>
				<rect x="21.127" y="20.443" fill="#FFFFFF" width="11.813" height="7.942"/>
				<path fill="#61AAD1" d="M32.939,29.636H21.127c-0.69,0-1.25-0.56-1.25-1.25v-7.942c0-0.69,0.56-1.25,1.25-1.25h11.813
					c0.69,0,1.25,0.56,1.25,1.25v7.942C34.189,29.076,33.63,29.636,32.939,29.636z M22.377,27.136h9.313v-5.442h-9.313V27.136z"/>
			</g>
			<path fill="#61AAD1" d="M24.932,28.373c-0.414,0-0.75-0.336-0.75-0.75v-6.689c0-0.414,0.336-0.75,0.75-0.75s0.75,0.336,0.75,0.75
				v6.689C25.682,28.037,25.346,28.373,24.932,28.373z"/>
			<path fill="#61AAD1" d="M29.336,28.373c-0.414,0-0.75-0.336-0.75-0.75v-6.689c0-0.414,0.336-0.75,0.75-0.75s0.75,0.336,0.75,0.75
				v6.689C30.086,28.037,29.75,28.373,29.336,28.373z"/>
		</g>
		<g>
			<polyline fill="#FFFFFF" points="19.828,40.633 26.561,40.633 26.561,62.397 20.006,62.397 			"/>
			<path fill="#61AAD1" d="M26.561,63.647h-6.555c-0.69,0-1.25-0.56-1.25-1.25s0.56-1.25,1.25-1.25h5.305V41.883h-5.482
				c-0.69,0-1.25-0.56-1.25-1.25s0.56-1.25,1.25-1.25h6.732c0.69,0,1.25,0.56,1.25,1.25v21.764
				C27.811,63.087,27.251,63.647,26.561,63.647z"/>
		</g>
	</g>
</g>
</svg>
