<?xml version="1.0" encoding="utf-8"?>
<!-- Generator: Adobe Illustrator 16.0.0, SVG Export Plug-In . SVG Version: 6.00 Build 0)  -->
<!DOCTYPE svg PUBLIC "-//W3C//DTD SVG 1.1//EN" "http://www.w3.org/Graphics/SVG/1.1/DTD/svg11.dtd">
<svg version="1.1" id="Calque_2" xmlns="http://www.w3.org/2000/svg" xmlns:xlink="http://www.w3.org/1999/xlink" x="0px" y="0px"
	 width="83px" height="83px" viewBox="0 0 83 83" enable-background="new 0 0 83 83" xml:space="preserve">
<g>
	<g>
		<path fill="#020202" stroke="#000000" stroke-width="0.5" stroke-miterlimit="10" d="M41.503,44.768
			c-1.803,0-3.269-1.463-3.269-3.266s1.466-3.272,3.269-3.272c1.519,0,2.862,1.077,3.189,2.562c0.049,0.232,0.077,0.471,0.077,0.71
			C44.769,43.304,43.303,44.768,41.503,44.768z M41.503,39.487c-1.108,0-2.011,0.903-2.011,2.014c0,1.108,0.903,2.008,2.011,2.008
			c1.105,0,2.008-0.9,2.008-2.008c0-0.15-0.019-0.3-0.049-0.444C43.263,40.148,42.437,39.487,41.503,39.487z"/>
	</g>
	<g>
		<path fill="#020202" stroke="#000000" stroke-width="0.5" stroke-miterlimit="10" d="M41.503,70.869
			c-16.195,0-29.373-13.175-29.373-29.367s13.178-29.37,29.373-29.37c13.667,0,25.728,9.676,28.675,23
			c0.459,2.076,0.692,4.218,0.692,6.37C70.87,57.694,57.696,70.869,41.503,70.869z M41.503,13.39
			c-15.501,0-28.112,12.608-28.112,28.112c0,15.501,12.611,28.109,28.112,28.109c15.498,0,28.106-12.608,28.106-28.109
			c0-2.06-0.22-4.111-0.661-6.098C66.132,22.649,54.586,13.39,41.503,13.39z"/>
	</g>
	<g>
		
			<rect x="40.873" y="15.26" fill="#020202" stroke="#000000" stroke-width="0.5" stroke-miterlimit="10" width="1.258" height="3.517"/>
	</g>
	<g>
		
			<rect x="15.258" y="40.871" fill="#020202" stroke="#000000" stroke-width="0.5" stroke-miterlimit="10" width="3.385" height="1.258"/>
	</g>
	<g>
		
			<rect x="40.873" y="64.171" fill="#020202" stroke="#000000" stroke-width="0.5" stroke-miterlimit="10" width="1.258" height="3.517"/>
	</g>
	<g>
		
			<rect x="64.559" y="40.871" fill="#020202" stroke="#000000" stroke-width="0.5" stroke-miterlimit="10" width="3.293" height="1.258"/>
	</g>
	<g>
		
			<rect x="20.583" y="21.795" transform="matrix(0.7067 0.7075 -0.7075 0.7067 22.444 -9.2911)" fill="#020202" stroke="#000000" stroke-width="0.5" stroke-miterlimit="10" width="3.69" height="1.26"/>
	</g>
	<g>
		
			<rect x="21.799" y="58.729" transform="matrix(0.7071 0.7071 -0.7071 0.7071 49.4007 1.8821)" fill="#020202" stroke="#000000" stroke-width="0.5" stroke-miterlimit="10" width="1.26" height="3.688"/>
	</g>
	<g>
		
			<rect x="58.729" y="59.942" transform="matrix(0.7075 0.7067 -0.7067 0.7075 60.5253 -25.0912)" fill="#020202" stroke="#000000" stroke-width="0.5" stroke-miterlimit="10" width="3.69" height="1.262"/>
	</g>
	<g>
		
			<rect x="59.944" y="20.579" transform="matrix(0.7083 0.7059 -0.7059 0.7083 33.5026 -36.22)" fill="#020202" stroke="#000000" stroke-width="0.5" stroke-miterlimit="10" width="1.262" height="3.693"/>
	</g>
	<g>
		
			<rect x="30.611" y="31.957" transform="matrix(0.4126 0.9109 -0.9109 0.4126 51.6973 -14.9951)" fill="#020202" stroke="#000000" stroke-width="0.5" stroke-miterlimit="10" width="13.727" height="1.256"/>
	</g>
	<g>
		
			<rect x="43.432" y="45.707" transform="matrix(0.936 0.352 -0.352 0.936 19.7187 -15.7756)" fill="#020202" stroke="#000000" stroke-width="0.5" stroke-miterlimit="10" width="19.618" height="1.262"/>
	</g>
</g>
</svg>
