<?xml version="1.0" encoding="utf-8"?>
<!-- Generator: Adobe Illustrator 16.0.0, SVG Export Plug-In . SVG Version: 6.00 Build 0)  -->
<!DOCTYPE svg PUBLIC "-//W3C//DTD SVG 1.1//EN" "http://www.w3.org/Graphics/SVG/1.1/DTD/svg11.dtd">
<svg version="1.1" id="Calque_2" xmlns="http://www.w3.org/2000/svg" xmlns:xlink="http://www.w3.org/1999/xlink" x="0px" y="0px"
	 width="83px" height="83px" viewBox="0 0 83 83" enable-background="new 0 0 83 83" xml:space="preserve">
<g>
	<g>
		<g>
			<path fill="none" stroke="#394553" stroke-width="2" stroke-linecap="round" stroke-miterlimit="10" d="M41.478,34.01
				c0-3.254-2.867-6.506-6.573-6.506c-1.361,0-4.03,0.907-4.03,4.388v8.437c0,0.5,0.408,0.909,0.907,0.909h8.801
				c0.5,0,0.895-0.409,0.895-0.909C41.478,40.328,41.478,35.447,41.478,34.01z"/>
			<path fill="none" stroke="#394553" stroke-width="2" stroke-linecap="round" stroke-miterlimit="10" d="M30.777,32.415
				c-1.012-2.452-2.949-4.685-5.428-4.685c-1.36,0-3.443,0.681-3.443,4.161v7.701c0,0.498,0.408,0.907,0.907,0.907h4.295"/>
			<path fill="none" stroke="#394553" stroke-width="2" stroke-linecap="round" stroke-miterlimit="10" d="M21.978,31.223
				c-0.893-1.548-2.256-2.774-3.917-2.774c-1.11,0-2.811,0.557-2.811,3.397v6.288c0,0.407,0.333,0.741,0.74,0.741h2.236"/>
		</g>
		<g>
			<path fill="none" stroke="#394553" stroke-width="2" stroke-linecap="round" stroke-miterlimit="10" d="M41.478,34.01
				c0-3.254,2.867-6.506,6.573-6.506c1.361,0,4.029,0.907,4.029,4.388v8.437c0,0.5-0.407,0.909-0.906,0.909h-8.801
				c-0.499,0-0.895-0.409-0.895-0.909C41.478,40.328,41.478,35.447,41.478,34.01z"/>
			<path fill="none" stroke="#394553" stroke-width="2" stroke-linecap="round" stroke-miterlimit="10" d="M52.179,32.415
				c1.012-2.452,2.949-4.685,5.429-4.685c1.359,0,3.443,0.681,3.443,4.161v7.701c0,0.498-0.408,0.907-0.907,0.907h-7.815"/>
			<path fill="none" stroke="#394553" stroke-width="2" stroke-linecap="round" stroke-miterlimit="10" d="M60.979,31.223
				c0.893-1.548,2.256-2.774,3.916-2.774c1.111,0,2.813,0.557,2.813,3.397v6.288c0,0.407-0.334,0.741-0.74,0.741h-5.779"/>
		</g>
	</g>
	<path fill="none" stroke="#394553" stroke-width="2" stroke-linecap="round" stroke-miterlimit="10" d="M67.852,32.101h1.545
		v-9.498C64.799,17.759,54.051,14.36,41.5,14.36c-12.551,0-23.298,3.398-27.897,8.242v2.753"/>
	<path fill="none" stroke="#394553" stroke-width="2" stroke-linecap="round" stroke-miterlimit="10" d="M17.157,59.185v2.199
		c4.048,4.264,13.511,7.256,24.561,7.256c11.051,0,20.512-2.992,24.561-7.256v-9.734H64.74"/>
	<g>
		<path fill="none" stroke="#394553" stroke-width="2" stroke-linecap="round" stroke-miterlimit="10" d="M41.683,47.507v8.408
			c0,2.082-1.705,3.787-3.788,3.787h-0.079c-2.084,0-3.788-1.705-3.788-3.787v-8.408"/>
		<path fill="none" stroke="#394553" stroke-width="2" stroke-linecap="round" stroke-miterlimit="10" d="M18.956,45.321v8.123
			c0,2.084,0.888,3.434,2.906,3.434c2.02,0,4.513-1.822,4.513-3.906v-7.65H18.956z"/>
	</g>
	<g>
		<path fill="none" stroke="#394553" stroke-width="2" stroke-linecap="round" stroke-miterlimit="10" d="M41.682,47.507v8.408
			c0,2.082,1.705,3.787,3.787,3.787h0.08c2.083,0,3.787-1.705,3.787-3.787v-8.408"/>
		<path fill="none" stroke="#394553" stroke-width="2" stroke-linecap="round" stroke-miterlimit="10" d="M64.408,45.321v8.123
			c0,2.084-0.887,3.434-2.906,3.434s-4.511-1.822-4.511-3.906v-7.65H64.408z"/>
	</g>
	<path fill="none" stroke="#394553" stroke-width="2" stroke-linecap="round" stroke-miterlimit="10" d="M49.336,54.806
		c0,2.084,2.572,3.906,4.655,3.906c2.085,0,3-1.35,3-3.432v-8.361H26.374v8.361c0,2.082,0.915,3.432,2.999,3.432
		s4.656-1.822,4.656-3.906"/>
</g>
</svg>
