<?xml version="1.0" encoding="utf-8"?>
<!-- Generator: Adobe Illustrator 16.0.0, SVG Export Plug-In . SVG Version: 6.00 Build 0)  -->
<!DOCTYPE svg PUBLIC "-//W3C//DTD SVG 1.1//EN" "http://www.w3.org/Graphics/SVG/1.1/DTD/svg11.dtd">
<svg version="1.1" id="Calque_2" xmlns="http://www.w3.org/2000/svg" xmlns:xlink="http://www.w3.org/1999/xlink" x="0px" y="0px"
	 width="83px" height="83px" viewBox="0 0 83 83" enable-background="new 0 0 83 83" xml:space="preserve">
<g>
	<g>
		<polyline fill="none" stroke="#394553" stroke-width="2" points="28.578,28.693 18.361,18.476 9.986,18.476 9.986,6.19 		"/>
		<path fill="none" stroke="#394553" stroke-width="2" d="M47.998,52.722l23.436,23.436c0.636,0.637,1.669,0.635,2.305,0
			l2.303-2.304c0.639-0.637,0.639-1.669,0-2.306L52.908,48.413"/>
		<path fill="none" stroke="#394553" stroke-width="2" d="M41.609,48.637l4.386,4.385c0.635,0.637,1.668,0.635,2.303,0l4.61-4.608
			c0.636-0.638,0.636-1.668,0-2.305l-4.855-4.854"/>
		<path fill="none" stroke="#394553" stroke-width="2" d="M42.546,35.749l-9.207-9.208c-0.636-0.636-1.667-0.636-2.303,0.001
			l-4.611,4.608c-0.635,0.636-0.636,1.668,0,2.306l8.827,8.825"/>
	</g>
	<g>
		<line fill="none" stroke="#394553" stroke-width="2" x1="59.478" y1="24.297" x2="53.845" y2="29.93"/>
		<path fill="none" stroke="#394553" stroke-width="2" d="M15.104,76.39c-0.571,0.614-1.636,0.547-2.368-0.155
			c-1.768-1.695-3.501-3.427-5.196-5.195c-0.703-0.733-0.768-1.797-0.154-2.369c14.063-13.168,28.126-26.335,42.191-39.503
			c0.612-0.573,1.466-0.656,1.912-0.19c1.08,1.125,2.184,2.229,3.307,3.308c0.465,0.445,0.383,1.3-0.188,1.914
			C41.439,48.263,28.272,62.327,15.104,76.39z"/>
		<line fill="none" stroke="#394553" stroke-width="2" x1="46.795" y1="32.545" x2="52.166" y2="37.915"/>
		<line fill="none" stroke="#394553" stroke-width="2" x1="12.795" y1="68.694" x2="18.166" y2="74.062"/>
		<circle fill="none" stroke="#394553" stroke-width="2" cx="66.858" cy="16.916" r="10.437"/>
	</g>
</g>
</svg>
