<?xml version="1.0" encoding="utf-8"?>
<!-- Generator: Adobe Illustrator 16.0.0, SVG Export Plug-In . SVG Version: 6.00 Build 0)  -->
<!DOCTYPE svg PUBLIC "-//W3C//DTD SVG 1.1//EN" "http://www.w3.org/Graphics/SVG/1.1/DTD/svg11.dtd">
<svg version="1.1" id="Calque_2" xmlns="http://www.w3.org/2000/svg" xmlns:xlink="http://www.w3.org/1999/xlink" x="0px" y="0px"
	 width="83px" height="83px" viewBox="0 0 83 83" enable-background="new 0 0 83 83" xml:space="preserve">
<g>
	<g>
		
			<line fill="none" stroke="#394553" stroke-width="2.5" stroke-linecap="round" stroke-linejoin="round" stroke-miterlimit="10" x1="40.887" y1="63.058" x2="40.887" y2="70.464"/>
		
			<path fill="none" stroke="#394553" stroke-width="2.5" stroke-linecap="round" stroke-linejoin="round" stroke-miterlimit="10" d="
			M66.15,70.464l-0.99-15.723c-0.891-5.643-7.609-6.965-7.609-6.965l-7.287-1.25l-9.377,17.115l-9.375-17.115l-7.287,1.25
			c0,0-6.719,1.322-7.609,6.965l-0.99,15.723"/>
	</g>
	<g>
		<path fill="none" stroke="#394553" stroke-width="2.5" stroke-linejoin="round" stroke-miterlimit="10" d="M40.826,12.536
			c-11.35,0-11.979,6.863-11.186,15.205c0.795,8.358,6.047,15.2,11.186,15.2s10.389-6.842,11.184-15.2
			C52.801,19.399,52.174,12.536,40.826,12.536z"/>
		
			<path fill="none" stroke="#394553" stroke-width="2.5" stroke-linecap="round" stroke-linejoin="round" stroke-miterlimit="10" d="
			M44.184,19.274c0,0-1.203,5.705-9.885,5.705"/>
		
			<path fill="none" stroke="#394553" stroke-width="2.5" stroke-linecap="round" stroke-linejoin="round" stroke-miterlimit="10" d="
			M43.193,21.584c0,0,3.898,2.673,8.697,3.925"/>
	</g>
</g>
<g>
	<g>
		
			<line fill="none" stroke="#394553" stroke-width="2.5" stroke-linecap="round" stroke-linejoin="round" stroke-miterlimit="10" x1="67.088" y1="42.76" x2="67.088" y2="46.923"/>
		
			<path fill="none" stroke="#394553" stroke-width="2.5" stroke-linecap="round" stroke-linejoin="round" stroke-miterlimit="10" d="
			M81.288,46.923l-0.557-8.838c-0.5-3.172-4.277-3.915-4.277-3.915l-4.096-0.702l-5.271,9.62l-5.27-9.62l-4.097,0.702
			c0,0-3.776,0.743-4.277,3.915l-0.557,8.838"/>
	</g>
	<g>
		<path fill="none" stroke="#394553" stroke-width="2.5" stroke-linejoin="round" stroke-miterlimit="10" d="M67.054,14.361
			c-6.38,0-6.733,3.858-6.288,8.547c0.447,4.698,3.399,8.545,6.288,8.545s5.839-3.847,6.286-8.545
			C73.784,18.219,73.432,14.361,67.054,14.361z"/>
		
			<path fill="none" stroke="#394553" stroke-width="2.5" stroke-linecap="round" stroke-linejoin="round" stroke-miterlimit="10" d="
			M68.94,18.149c0,0-0.676,3.207-5.556,3.207"/>
		
			<path fill="none" stroke="#394553" stroke-width="2.5" stroke-linecap="round" stroke-linejoin="round" stroke-miterlimit="10" d="
			M68.384,19.448c0,0,2.191,1.502,4.889,2.206"/>
	</g>
</g>
<g>
	<g>
		
			<line fill="none" stroke="#394553" stroke-width="2.5" stroke-linecap="round" stroke-linejoin="round" stroke-miterlimit="10" x1="14.687" y1="42.76" x2="14.687" y2="46.923"/>
		
			<path fill="none" stroke="#394553" stroke-width="2.5" stroke-linecap="round" stroke-linejoin="round" stroke-miterlimit="10" d="
			M28.887,46.923l-0.557-8.838c-0.5-3.172-4.277-3.915-4.277-3.915l-4.096-0.702l-5.271,9.62l-5.27-9.62L5.32,34.17
			c0,0-3.776,0.743-4.277,3.915l-0.557,8.838"/>
	</g>
	<g>
		<path fill="none" stroke="#394553" stroke-width="2.5" stroke-linejoin="round" stroke-miterlimit="10" d="M14.652,14.361
			c-6.38,0-6.733,3.858-6.288,8.547c0.447,4.698,3.399,8.545,6.288,8.545s5.839-3.847,6.286-8.545
			C21.383,18.219,21.03,14.361,14.652,14.361z"/>
		
			<path fill="none" stroke="#394553" stroke-width="2.5" stroke-linecap="round" stroke-linejoin="round" stroke-miterlimit="10" d="
			M16.539,18.149c0,0-0.676,3.207-5.556,3.207"/>
		
			<path fill="none" stroke="#394553" stroke-width="2.5" stroke-linecap="round" stroke-linejoin="round" stroke-miterlimit="10" d="
			M15.982,19.448c0,0,2.191,1.502,4.889,2.206"/>
	</g>
</g>
</svg>
