<?xml version="1.0" encoding="utf-8"?>
<!-- Generator: Adobe Illustrator 16.0.0, SVG Export Plug-In . SVG Version: 6.00 Build 0)  -->
<!DOCTYPE svg PUBLIC "-//W3C//DTD SVG 1.1//EN" "http://www.w3.org/Graphics/SVG/1.1/DTD/svg11.dtd">
<svg version="1.1" id="Calque_2" xmlns="http://www.w3.org/2000/svg" xmlns:xlink="http://www.w3.org/1999/xlink" x="0px" y="0px"
	 width="83px" height="83px" viewBox="0 0 83 83" enable-background="new 0 0 83 83" xml:space="preserve">
<g>
	<g>
		<path fill="#FFFFFF" d="M62.732,74.037v-4.141c0-10.098-7.051-18.543-16.492-20.697v-6.617h-9.482v6.617
			c-9.441,2.156-16.49,10.6-16.49,20.697v4.141"/>
		<path fill="#9B9B9B" d="M62.732,75.287c-0.69,0-1.25-0.56-1.25-1.25v-4.141c0-9.384-6.382-17.394-15.521-19.479
			c-0.568-0.13-0.972-0.636-0.972-1.219v-5.367h-6.982v5.367c0,0.583-0.403,1.089-0.972,1.219
			c-9.137,2.087-15.519,10.097-15.519,19.479v4.141c0,0.69-0.56,1.25-1.25,1.25s-1.25-0.56-1.25-1.25v-4.141
			c0-10.22,6.731-18.993,16.49-21.672v-5.643c0-0.69,0.56-1.25,1.25-1.25h9.482c0.69,0,1.25,0.56,1.25,1.25v5.643
			c9.761,2.677,16.492,11.45,16.492,21.672v4.141C63.982,74.728,63.423,75.287,62.732,75.287z"/>
	</g>
	<path fill="#9B9B9B" d="M41.502,64.084c-0.356,0-0.696-0.152-0.933-0.418l-9.838-11.031c-0.46-0.516-0.414-1.306,0.101-1.765
		c0.515-0.461,1.306-0.415,1.765,0.101l8.905,9.985l8.903-9.985c0.458-0.515,1.248-0.562,1.765-0.101
		c0.515,0.459,0.561,1.249,0.101,1.765l-9.836,11.031C42.198,63.932,41.858,64.084,41.502,64.084z"/>
	<g>
		<g>
			<path fill="#FFFFFF" d="M53.58,34.742c0,6.67-5.408,12.078-12.08,12.078l0,0c-6.672,0-12.078-5.408-12.078-12.078V23.678
				c0-5.16,4.18-9.34,9.338-9.34h5.48c5.158,0,9.34,4.18,9.34,9.34V34.742z"/>
			<path fill="#9B9B9B" d="M41.5,48.07c-7.349,0-13.328-5.979-13.328-13.328V23.678c0-5.839,4.749-10.59,10.588-10.59h5.48
				c5.839,0,10.59,4.751,10.59,10.59v11.064C54.83,42.092,48.851,48.07,41.5,48.07z M38.76,15.588c-4.46,0-8.088,3.629-8.088,8.09
				v11.064c0,5.971,4.857,10.828,10.828,10.828c5.972,0,10.83-4.857,10.83-10.828V23.678c0-4.461-3.629-8.09-8.09-8.09H38.76z"/>
		</g>
		<g>
			<path fill="#9B9B9B" d="M53.074,28.654H29.928c-0.69,0-1.25-0.56-1.25-1.25s0.56-1.25,1.25-1.25h23.146
				c0.69,0,1.25,0.56,1.25,1.25S53.765,28.654,53.074,28.654z"/>
		</g>
	</g>
	<g>
		<g>
			<path fill="#FFFFFF" d="M48.574,16.416c0,4.117-3.166,7.455-7.072,7.455c-3.91,0-7.076-3.338-7.076-7.455
				c0-4.115,3.166-7.453,7.076-7.453C45.408,8.963,48.574,12.301,48.574,16.416z"/>
			<path fill="#61AAD1" d="M41.502,25.121c-4.591,0-8.326-3.905-8.326-8.705c0-4.799,3.735-8.703,8.326-8.703
				c4.589,0,8.322,3.904,8.322,8.703C49.824,21.216,46.091,25.121,41.502,25.121z M41.502,10.213c-3.212,0-5.826,2.782-5.826,6.203
				c0,3.422,2.614,6.205,5.826,6.205c3.21,0,5.822-2.783,5.822-6.205C47.324,12.995,44.712,10.213,41.502,10.213z"/>
		</g>
		<ellipse fill="#61AAD1" cx="41.501" cy="16.416" rx="2.878" ry="3.033"/>
	</g>
</g>
</svg>
