<?xml version="1.0" encoding="utf-8"?>
<!-- Generator: Adobe Illustrator 16.0.0, SVG Export Plug-In . SVG Version: 6.00 Build 0)  -->
<!DOCTYPE svg PUBLIC "-//W3C//DTD SVG 1.1//EN" "http://www.w3.org/Graphics/SVG/1.1/DTD/svg11.dtd">
<svg version="1.1" id="Calque_2" xmlns="http://www.w3.org/2000/svg" xmlns:xlink="http://www.w3.org/1999/xlink" x="0px" y="0px"
	 width="83px" height="83px" viewBox="0 0 83 83" enable-background="new 0 0 83 83" xml:space="preserve">
<g>
	<circle fill="#394553" stroke="#394553" stroke-width="2" stroke-miterlimit="10" cx="8.901" cy="30.563" r="0.75"/>
	<circle fill="#394553" stroke="#394553" stroke-width="2" stroke-miterlimit="10" cx="25.651" cy="13.479" r="0.75"/>
	<path fill="#394553" stroke="#394553" stroke-width="2" stroke-miterlimit="10" d="M31.398,23.229c0,0.403,0.326,0.729,0.727,0.729
		c0.402,0,0.733-0.326,0.733-0.729c0-0.404-0.331-0.73-0.733-0.73C31.724,22.499,31.398,22.825,31.398,23.229z"/>
	<g>
		
			<line fill="none" stroke="#394553" stroke-width="2" stroke-linejoin="round" stroke-miterlimit="10" x1="19.565" y1="18.494" x2="19.565" y2="22.14"/>
		
			<line fill="none" stroke="#394553" stroke-width="2" stroke-linejoin="round" stroke-miterlimit="10" x1="19.565" y1="26.296" x2="19.565" y2="29.941"/>
		
			<line fill="none" stroke="#394553" stroke-width="2" stroke-linejoin="round" stroke-miterlimit="10" x1="25.288" y1="24.218" x2="21.643" y2="24.218"/>
		
			<line fill="none" stroke="#394553" stroke-width="2" stroke-linejoin="round" stroke-miterlimit="10" x1="17.487" y1="24.218" x2="13.842" y2="24.218"/>
	</g>
	<g>
		<path fill="none" stroke="#394553" stroke-width="2" stroke-linejoin="round" stroke-miterlimit="10" d="M79.741,41.429"/>
	</g>
	<path fill="none" stroke="#394553" stroke-width="2" stroke-linejoin="round" stroke-miterlimit="10" d="M2.74,41.429
		C8.702,50.831,24.029,57.452,41.5,57.452c17.471,0,32.797-6.621,38.761-16.023"/>
	<path fill="none" stroke="#394553" stroke-width="2" stroke-linecap="round" stroke-linejoin="round" stroke-miterlimit="10" d="
		M7.438,52.994C14.3,63.25,26.999,70.271,41.5,70.271c19.557,0,35.837-12.77,38.942-29.024l-26.773-9.432
		c-7.545-2.19-12.169,4.138-12.169,4.138s-4.625-6.328-12.17-4.138L2.557,41.246"/>
	<path fill="none" stroke="#394553" stroke-width="2" stroke-linejoin="round" stroke-miterlimit="10" d="M2.84,41.388
		c11.577,1.68,24.725,2.854,38.659,2.854c13.936,0,27.084-1.174,38.66-2.854"/>
	
		<line fill="none" stroke="#394553" stroke-width="2" stroke-linejoin="round" stroke-miterlimit="10" x1="41.5" y1="44.674" x2="41.5" y2="53.314"/>
	<g>
		<g>
			
				<line fill="none" stroke="#394553" stroke-width="2" stroke-linejoin="round" stroke-miterlimit="10" x1="28.6" y1="44.021" x2="28.6" y2="52.155"/>
			
				<line fill="none" stroke="#394553" stroke-width="2" stroke-linejoin="round" stroke-miterlimit="10" x1="16.917" y1="43.376" x2="16.917" y2="48.081"/>
		</g>
		<g>
			
				<line fill="none" stroke="#394553" stroke-width="2" stroke-linejoin="round" stroke-miterlimit="10" x1="54.4" y1="44.021" x2="54.4" y2="52.155"/>
			
				<line fill="none" stroke="#394553" stroke-width="2" stroke-linejoin="round" stroke-miterlimit="10" x1="66.083" y1="43.376" x2="66.083" y2="52.868"/>
		</g>
	</g>
</g>
</svg>
