<?xml version="1.0" encoding="utf-8"?>
<!-- Generator: Adobe Illustrator 16.0.0, SVG Export Plug-In . SVG Version: 6.00 Build 0)  -->
<!DOCTYPE svg PUBLIC "-//W3C//DTD SVG 1.1//EN" "http://www.w3.org/Graphics/SVG/1.1/DTD/svg11.dtd">
<svg version="1.1" id="Calque_2" xmlns="http://www.w3.org/2000/svg" xmlns:xlink="http://www.w3.org/1999/xlink" x="0px" y="0px"
	 width="83px" height="83px" viewBox="0 0 83 83" enable-background="new 0 0 83 83" xml:space="preserve">
<g>
	<g>
		<g>
			<g>
				<rect x="34.599" y="9.851" fill="#394553" width="2.053" height="5.995"/>
			</g>
			<g>
				<rect x="34.599" y="20.141" fill="#394553" width="2.053" height="2.606"/>
			</g>
			<g>
				<rect x="41.179" y="5.432" fill="#394553" width="2.053" height="5.995"/>
			</g>
			<g>
				<rect x="41.179" y="15.722" fill="#394553" width="2.053" height="2.606"/>
			</g>
			<g>
				<rect x="47.757" y="11.029" fill="#394553" width="2.054" height="5.995"/>
			</g>
			<g>
				<rect x="47.757" y="21.317" fill="#394553" width="2.054" height="2.606"/>
			</g>
		</g>
	</g>
	<g>
		<path fill="#394553" d="M59.074,77.568h-11.04l-2.137-4.815c-2.604,0.311-4.962,0.284-7.446-0.036l-2.147,4.852H25.272
			l1.478-9.074c-3.374-2.212-5.944-5.07-7.484-8.333h-5.15c-1.805,0-3.272-1.47-3.272-3.273v-7.01c0-1.805,1.468-3.272,3.272-3.272
			h4.91c1.046-2.409,2.698-4.671,4.819-6.602v-9.683l1.281,0.329c0.207,0.052,4.802,1.259,7.57,4.218
			c0.645-0.22,1.302-0.421,1.974-0.597l0.521,1.984c-0.842,0.223-1.659,0.483-2.453,0.778l-0.698,0.257l-0.463-0.582
			c-1.51-1.9-4.118-3.081-5.679-3.652v7.875l-0.353,0.305c-2.237,1.949-3.922,4.289-4.872,6.763l-0.252,0.66h-6.306
			c-0.672,0-1.22,0.545-1.22,1.219v7.01c0,0.673,0.548,1.221,1.22,1.221h6.491l0.268,0.623c1.411,3.316,4.018,6.216,7.538,8.385
			l0.583,0.361l-1.309,8.038h7.282l2.239-5.059l0.775,0.12c2.779,0.431,5.39,0.467,8.397,0.042l0.768-0.108l2.222,5.005h7.277
			l-1.311-7.83l0.605-0.356c5.758-3.408,9.061-8.583,9.061-14.199c0-7.808-6.372-14.628-15.854-16.972l0.493-1.993
			C60.058,36.739,67.055,44.36,67.055,53.13c0,6.157-3.438,11.808-9.463,15.595L59.074,77.568z"/>
	</g>
	<g>
		<path fill="#394553" d="M66.213,54.16c-0.084,0-0.165-0.002-0.241-0.008l0.112-2.049l-0.056,1.026l0.048-1.026
			c0.389,0.02,3.543,0.02,4.044-4.108l2.037,0.247C71.586,52.953,68.15,54.16,66.213,54.16z"/>
	</g>
	<g>
		<rect x="16.127" y="51.51" fill="#394553" width="2.053" height="2.825"/>
	</g>
	<g>
		<path fill="#394553" d="M51.352,41.891c-1.668-1.656-4.737-2.688-8.014-2.688c-3.275,0-6.346,1.031-8.014,2.688l-1.447-1.456
			c2.068-2.058,5.605-3.284,9.461-3.284s7.393,1.227,9.462,3.284L51.352,41.891z"/>
	</g>
	<g>
		<path fill="#394553" d="M37.204,40.539l-0.487-0.421c-1.877-1.616-2.951-3.938-2.951-6.368c0-4.655,3.787-8.441,8.44-8.441
			s8.441,3.786,8.441,8.441c0,2.102-0.801,4.126-2.25,5.702l-0.427,0.465l-0.607-0.172c-3.122-0.879-6.817-0.662-9.568,0.537
			L37.204,40.539z M42.206,27.362c-3.522,0-6.388,2.865-6.388,6.388c0,1.632,0.647,3.202,1.795,4.393
			c2.883-1.085,6.491-1.293,9.659-0.541c0.856-1.117,1.321-2.464,1.321-3.852C48.593,30.228,45.728,27.362,42.206,27.362z"/>
	</g>
</g>
</svg>
