<?xml version="1.0" encoding="utf-8"?>
<!-- Generator: Adobe Illustrator 16.0.0, SVG Export Plug-In . SVG Version: 6.00 Build 0)  -->
<!DOCTYPE svg PUBLIC "-//W3C//DTD SVG 1.1//EN" "http://www.w3.org/Graphics/SVG/1.1/DTD/svg11.dtd">
<svg version="1.1" id="Calque_2" xmlns="http://www.w3.org/2000/svg" xmlns:xlink="http://www.w3.org/1999/xlink" x="0px" y="0px"
	 width="83px" height="83px" viewBox="0 0 83 83" enable-background="new 0 0 83 83" xml:space="preserve">
<g>
	<g>
		<g>
			<line fill="#FFFFFF" x1="45.114" y1="25.021" x2="45.114" y2="57.428"/>
			<path fill="#9B9B9B" d="M45.114,58.678c-0.69,0-1.25-0.56-1.25-1.25V25.021c0-0.69,0.56-1.25,1.25-1.25s1.25,0.56,1.25,1.25
				v32.406C46.364,58.118,45.805,58.678,45.114,58.678z"/>
		</g>
		<g>
			<rect x="30.696" y="11.29" fill="#FFFFFF" width="28.836" height="20.871"/>
			<path fill="#61AAD1" d="M59.532,33.411H30.696c-0.69,0-1.25-0.56-1.25-1.25V11.29c0-0.69,0.56-1.25,1.25-1.25h28.836
				c0.69,0,1.25,0.56,1.25,1.25v20.871C60.782,32.852,60.223,33.411,59.532,33.411z M31.946,30.911h26.336V12.54H31.946V30.911z"/>
		</g>
	</g>
	<g>
		<polyline fill="#FFFFFF" points="46.511,70.337 46.511,50.563 34.976,50.563 34.976,70.337 		"/>
		<path fill="#9B9B9B" d="M46.511,71.587c-0.69,0-1.25-0.56-1.25-1.25V51.813h-9.035v18.524c0,0.69-0.56,1.25-1.25,1.25
			s-1.25-0.56-1.25-1.25V50.563c0-0.69,0.56-1.25,1.25-1.25h11.535c0.69,0,1.25,0.56,1.25,1.25v19.774
			C47.761,71.027,47.201,71.587,46.511,71.587z"/>
	</g>
	<g>
		<g>
			<path fill="#FFFFFF" d="M65.806,64.567c-0.973,0-1.937-0.43-2.588-1.252L54.87,52.759H28.454c-0.902,0-1.764-0.369-2.387-1.021
				l-11.26-11.81c-1.255-1.316-1.205-3.402,0.111-4.658c1.318-1.258,3.404-1.207,4.66,0.11l10.285,10.788h26.602
				c1.008,0,1.961,0.46,2.586,1.25l9.336,11.81c1.13,1.428,0.887,3.5-0.541,4.628C67.243,64.335,66.521,64.567,65.806,64.567z"/>
			<path fill="#9B9B9B" d="M65.806,65.817c-1.398,0-2.699-0.629-3.568-1.726l-7.973-10.083H28.454c-1.236,0-2.436-0.513-3.29-1.406
				L13.903,40.792c-1.729-1.813-1.66-4.696,0.152-6.426c0.85-0.811,1.965-1.257,3.138-1.257c1.255,0,2.425,0.5,3.29,1.409
				l9.916,10.4h26.066c1.399,0,2.699,0.629,3.566,1.725l9.336,11.81c0.754,0.952,1.091,2.141,0.949,3.347
				c-0.141,1.206-0.743,2.284-1.695,3.037C67.825,65.469,66.824,65.817,65.806,65.817z M17.193,35.609
				c-0.528,0-1.029,0.201-1.411,0.565c-0.816,0.779-0.848,2.076-0.07,2.892l11.26,11.81c0.385,0.401,0.926,0.633,1.482,0.633H54.87
				c0.383,0,0.744,0.175,0.98,0.475l8.348,10.557c0.68,0.858,2.014,1.017,2.871,0.337c0.432-0.34,0.702-0.825,0.766-1.367
				c0.063-0.543-0.088-1.077-0.428-1.506l-9.336-11.81c-0.39-0.492-0.975-0.775-1.605-0.775H29.864c-0.342,0-0.669-0.14-0.904-0.388
				L18.675,36.243C18.284,35.835,17.759,35.609,17.193,35.609z"/>
		</g>
		<path fill="#61AAD1" d="M32.55,38.507c1.115,1.14,1.094,2.966-0.045,4.079l0,0c-1.138,1.114-2.965,1.093-4.076-0.046l-5.57-5.693
			c-1.113-1.139-1.094-2.965,0.045-4.078l0,0c1.14-1.113,2.965-1.094,4.078,0.046L32.55,38.507z"/>
	</g>
	<path fill="#9B9B9B" d="M60.104,72.96H21.382c-0.69,0-1.25-0.56-1.25-1.25s0.56-1.25,1.25-1.25h38.723c0.69,0,1.25,0.56,1.25,1.25
		S60.795,72.96,60.104,72.96z"/>
	<g>
		<g>
			<path fill="#FFFFFF" d="M44.456,24.711c-1.025,0.079-1.496,1.892-2.049,3.39c-0.551,1.496-1.104,1.103-1.104,1.103
				c-1.496-1.972-1.496-7.882-1.496-7.882c-1.025-1.891-0.871-4.185-0.871-4.185c-0.119-2.569,2.451-2.449,3.586-1.853
				c1.136,0.599,1.793,0.777,1.793,0.777h0.754c0,0,0.657-0.179,1.793-0.777c1.135-0.597,3.705-0.717,3.586,1.853
				c0,0,0.154,2.294-0.869,4.185c0,0,0,5.91-1.498,7.882c0,0-0.551,0.394-1.103-1.103c-0.552-1.498-1.024-3.311-2.049-3.39H44.456z"
				/>
			<path fill="#9B9B9B" d="M47.907,30.351c-0.844,0-1.504-0.629-1.961-1.869c-0.08-0.216-0.157-0.438-0.235-0.66
				c-0.218-0.622-0.616-1.76-0.91-2.01h-0.216c-0.293,0.249-0.689,1.383-0.908,2.002c-0.078,0.226-0.157,0.45-0.237,0.668
				c-0.456,1.239-1.116,1.868-1.962,1.869c-0.415,0-0.706-0.176-0.813-0.251c-0.09-0.064-0.17-0.143-0.238-0.231
				c-1.527-2.015-1.699-6.955-1.717-8.276c-0.939-1.919-0.894-4.052-0.875-4.462c-0.042-1.232,0.412-1.978,0.803-2.388
				c0.571-0.599,1.387-0.914,2.358-0.914c0.712,0,1.454,0.176,2.038,0.482c0.727,0.383,1.232,0.575,1.452,0.651h0.413
				c0.216-0.075,0.723-0.267,1.45-0.65c0.585-0.308,1.327-0.483,2.039-0.483c0.972,0,1.787,0.315,2.358,0.914
				c0.391,0.41,0.845,1.155,0.803,2.388c0.019,0.41,0.064,2.543-0.873,4.461c-0.018,1.321-0.189,6.263-1.72,8.278
				c-0.067,0.088-0.146,0.165-0.236,0.229C48.614,30.174,48.323,30.351,47.907,30.351z M40.996,16.028
				c-0.346,0-0.625,0.085-0.767,0.232c-0.184,0.192-0.207,0.555-0.194,0.825c0.002,0.042,0.001,0.083-0.001,0.125
				c-0.001,0.017-0.113,2.011,0.74,3.586c0.088,0.161,0.133,0.342,0.133,0.524c0.001,1.593,0.193,4.132,0.671,5.831
				c0.008-0.022,0.016-0.045,0.023-0.066c0.55-1.569,1.175-3.349,2.771-3.472l0.558-0.003c1.681,0.126,2.306,1.909,2.857,3.481
				c0.007,0.02,0.014,0.039,0.021,0.06c0.479-1.699,0.671-4.238,0.672-5.831c0-0.183,0.045-0.362,0.133-0.523
				c0.848-1.566,0.74-3.567,0.738-3.587c-0.002-0.042-0.003-0.083-0.001-0.125c0.013-0.271-0.011-0.633-0.194-0.825
				c-0.142-0.147-0.421-0.232-0.767-0.232c-0.426,0-0.813,0.124-1.015,0.229c-1.207,0.637-1.938,0.844-2.016,0.865
				c-0.095,0.025-0.191,0.039-0.289,0.039h-0.754c-0.098,0-0.194-0.014-0.289-0.039c-0.078-0.021-0.809-0.229-2.017-0.865
				C41.809,16.152,41.422,16.028,40.996,16.028z"/>
		</g>
	</g>
</g>
</svg>
