<?xml version="1.0" encoding="utf-8"?>
<!-- Generator: Adobe Illustrator 16.0.0, SVG Export Plug-In . SVG Version: 6.00 Build 0)  -->
<!DOCTYPE svg PUBLIC "-//W3C//DTD SVG 1.1//EN" "http://www.w3.org/Graphics/SVG/1.1/DTD/svg11.dtd">
<svg version="1.1" id="Calque_2" xmlns="http://www.w3.org/2000/svg" xmlns:xlink="http://www.w3.org/1999/xlink" x="0px" y="0px"
	 width="83px" height="83px" viewBox="0 0 83 83" enable-background="new 0 0 83 83" xml:space="preserve">
<g>
	<g>
		<g>
			<path fill="none" stroke="#394553" stroke-width="2.5" stroke-miterlimit="10" d="M42.819,34.599
				c0-3.253-2.867-6.505-6.573-6.505c-1.361,0-4.03,0.907-4.03,4.388v8.437c0,0.5,0.408,0.909,0.907,0.909h8.801
				c0.5,0,0.895-0.409,0.895-0.909C42.819,40.917,42.819,36.037,42.819,34.599z"/>
			<path fill="none" stroke="#394553" stroke-width="2.5" stroke-miterlimit="10" d="M32.118,33.004
				c-1.012-2.453-2.949-4.685-5.428-4.685c-1.36,0-3.443,0.681-3.443,4.161v7.701c0,0.498,0.408,0.907,0.907,0.907h4.295"/>
			<path fill="none" stroke="#394553" stroke-width="2.5" stroke-miterlimit="10" d="M23.318,31.812
				c-0.893-1.547-2.256-2.774-3.917-2.774c-1.11,0-2.811,0.557-2.811,3.397v6.289c0,0.407,0.333,0.741,0.74,0.741h2.236"/>
		</g>
		<g>
			<path fill="none" stroke="#394553" stroke-width="2.5" stroke-miterlimit="10" d="M42.819,34.599
				c0-3.253,2.867-6.505,6.573-6.505c1.361,0,4.03,0.907,4.03,4.388v8.437c0,0.5-0.408,0.909-0.907,0.909h-8.801
				c-0.499,0-0.895-0.409-0.895-0.909C42.819,40.917,42.819,36.037,42.819,34.599z"/>
			<path fill="none" stroke="#394553" stroke-width="2.5" stroke-miterlimit="10" d="M53.52,33.004
				c1.012-2.453,2.949-4.685,5.428-4.685c1.36,0,3.443,0.681,3.443,4.161v7.701c0,0.498-0.408,0.907-0.907,0.907h-7.815"/>
			<path fill="none" stroke="#394553" stroke-width="2.5" stroke-miterlimit="10" d="M62.319,31.812
				c0.893-1.547,2.256-2.774,3.917-2.774c1.111,0,2.812,0.557,2.812,3.397v6.289c0,0.407-0.333,0.741-0.74,0.741h-5.779"/>
		</g>
	</g>
	<path fill="none" stroke="#394553" stroke-width="2.5" stroke-linecap="round" stroke-linejoin="round" stroke-miterlimit="10" d="
		M69.193,32.69h1.545v-9.499c-4.599-4.843-15.346-8.242-27.896-8.242c-12.551,0-23.298,3.398-27.897,8.242v2.753"/>
	<path fill="none" stroke="#394553" stroke-width="2.5" stroke-linecap="round" stroke-linejoin="round" stroke-miterlimit="10" d="
		M18.498,59.773v2.199c4.048,4.264,13.511,7.256,24.561,7.256c11.051,0,20.512-2.992,24.561-7.256v-9.734h-1.539"/>
	<g>
		
			<path fill="none" stroke="#394553" stroke-width="2.5" stroke-linecap="round" stroke-linejoin="round" stroke-miterlimit="10" d="
			M43.023,48.096v8.408c0,2.082-1.705,3.787-3.788,3.787h-0.079c-2.084,0-3.788-1.705-3.788-3.787v-8.408"/>
		
			<path fill="none" stroke="#394553" stroke-width="2.5" stroke-linecap="round" stroke-linejoin="round" stroke-miterlimit="10" d="
			M20.296,45.91v8.123c0,2.084,0.888,3.434,2.906,3.434c2.02,0,4.513-1.822,4.513-3.906v-7.65H20.296z"/>
	</g>
	<g>
		
			<path fill="none" stroke="#394553" stroke-width="2.5" stroke-linecap="round" stroke-linejoin="round" stroke-miterlimit="10" d="
			M43.022,48.096v8.408c0,2.082,1.705,3.787,3.788,3.787h0.08c2.083,0,3.788-1.705,3.788-3.787v-8.408"/>
		
			<path fill="none" stroke="#394553" stroke-width="2.5" stroke-linecap="round" stroke-linejoin="round" stroke-miterlimit="10" d="
			M65.75,45.91v8.123c0,2.084-0.888,3.434-2.906,3.434c-2.02,0-4.511-1.822-4.511-3.906v-7.65H65.75z"/>
	</g>
	<path fill="none" stroke="#394553" stroke-width="2.5" stroke-linecap="round" stroke-linejoin="round" stroke-miterlimit="10" d="
		M50.677,55.395c0,2.084,2.572,3.906,4.655,3.906c2.084,0,3-1.35,3-3.432v-8.361H27.715v8.361c0,2.082,0.915,3.432,2.999,3.432
		s4.656-1.822,4.656-3.906"/>
</g>
<rect id="_x3C_Slice_x3E__4_" fill="none" width="83" height="83"/>
<rect id="_x3C_Slice_x3E__1_" x="0.667" fill="none" width="83" height="83"/>
</svg>
