<?xml version="1.0" encoding="utf-8"?>
<!-- Generator: Adobe Illustrator 16.0.0, SVG Export Plug-In . SVG Version: 6.00 Build 0)  -->
<!DOCTYPE svg PUBLIC "-//W3C//DTD SVG 1.1//EN" "http://www.w3.org/Graphics/SVG/1.1/DTD/svg11.dtd">
<svg version="1.1" id="Calque_2" xmlns="http://www.w3.org/2000/svg" xmlns:xlink="http://www.w3.org/1999/xlink" x="0px" y="0px"
	 width="83px" height="83px" viewBox="0 0 83 83" enable-background="new 0 0 83 83" xml:space="preserve">
<g>
	<g>
		<path fill="none" stroke="#394553" stroke-width="2.5" stroke-linecap="round" stroke-miterlimit="10" d="M45.616,41.051
			c-3.718-0.574-5.988-2.401-5.988-2.401c-4.257-3.68-9.764-4.474-14.205-1.018c-4.439,3.458-5.344,9.925-2.245,14.71
			c0,0,5.51,8.568,6.077,17.549c0,0-0.042,4.838,4.162,6.285c0,0,1.307,0.617,2.045,0.527c1.487-0.184,1.768-2.336,1.621-8.057
			c0,0-0.304-8.297,3.19-8.297c3.496,0,3.192,8.297,3.192,8.297c-0.146,5.721,0.133,7.873,1.619,8.057
			c0.739,0.09,2.047-0.527,2.047-0.527c4.203-1.447,4.16-6.285,4.16-6.285c0.569-8.98,6.079-17.549,6.079-17.549
			c3.097-4.785,2.194-11.253-2.245-14.71c-3.443-2.679-7.525-2.806-11.171-1.011"/>
	</g>
	<g>
		
			<polyline fill="none" stroke="#394553" stroke-width="2.5" stroke-linecap="round" stroke-linejoin="round" stroke-miterlimit="10" points="
			24.066,16.239 27.473,24.185 27.473,29.51 53.073,29.51 53.073,24.185 58.442,9.619 48.022,16.36 40.283,7.465 40.264,7.465 
			32.527,16.36 22.104,9.619 		"/>
		
			<line fill="none" stroke="#394553" stroke-width="2.5" stroke-linejoin="round" stroke-miterlimit="10" x1="52.861" y1="24.45" x2="32.281" y2="24.45"/>
	</g>
</g>
</svg>
