<?xml version="1.0" encoding="utf-8"?>
<!-- Generator: Adobe Illustrator 16.0.0, SVG Export Plug-In . SVG Version: 6.00 Build 0)  -->
<!DOCTYPE svg PUBLIC "-//W3C//DTD SVG 1.1//EN" "http://www.w3.org/Graphics/SVG/1.1/DTD/svg11.dtd">
<svg version="1.1" id="Calque_2" xmlns="http://www.w3.org/2000/svg" xmlns:xlink="http://www.w3.org/1999/xlink" x="0px" y="0px"
	 width="83px" height="83px" viewBox="0 0 83 83" enable-background="new 0 0 83 83" xml:space="preserve">
<g>
	<path fill="none" stroke="#394553" stroke-width="2.5" stroke-linecap="round" stroke-miterlimit="10" d="M21.956,64.08
		c4.09,5.621,10.465,9.07,19.721,9.07c18.867,0,25.757-14.33,25.757-32.162c0-11.539-4.821-21.664-12.07-27.375
		c-3.958-3.115-9.153-3.409-13.687-0.919c-4.532-2.49-9.728-2.196-13.685,0.919c-7.249,5.711-12.07,15.836-12.07,27.375
		c0,6.994,1.059,13.449,3.485,18.711"/>
	<path fill="none" stroke="#394553" stroke-width="2.5" stroke-linecap="round" stroke-miterlimit="10" d="M34.172,19.894
		c2.327-0.995,4.858-1.541,7.505-1.541c11.503,0,20.824,10.303,20.824,23.012c0,12.707-9.321,23.01-20.824,23.01
		c-11.5,0-20.822-10.303-20.822-23.01c0-7.691,3.412-14.5,8.659-18.678"/>
	<path fill="none" stroke="#394553" stroke-width="2.5" stroke-linecap="round" stroke-miterlimit="10" d="M62.216,41.01
		c-3.433-7.198-10.817-12.841-10.817-12.841c-3.118-1.484-5.392-2.083-9.695-2.083c-4.302,0-6.575,0.599-9.693,2.083
		c0,0-3.071,2.349-6.174,5.945"/>
	<path fill="none" stroke="#394553" stroke-width="2.5" stroke-miterlimit="10" d="M55.125,48.68
		c1.661-13.58-8.333-14.863-8.333-14.863c-1.962-0.302-2.8,0.376-2.911,1.434c-0.178,1.659,0.451,2.781,0.451,2.781
		c0.521,0.597,0.837,1.378,0.837,2.234c0,1.875-1.616,3.395-3.492,3.395c-1.874,0-3.491-1.52-3.491-3.395
		c0-0.855,0.316-1.637,0.838-2.234c0,0,0.629-1.122,0.451-2.781c-0.113-1.058-0.949-1.736-2.911-1.434c0,0-7.766,1.004-8.468,10.641
		"/>
	<path fill="none" stroke="#394553" stroke-width="2.5" stroke-linecap="round" stroke-linejoin="round" stroke-miterlimit="10" d="
		M59.086,53.115c-7.987-12.441-17.393-2.918-17.393-2.918s-9.405-9.523-17.393,2.918"/>
</g>
<rect id="_x3C_Slice_x3E__5_" fill="none" width="83" height="83"/>
<rect id="_x3C_Slice_x3E__2_" x="-0.667" fill="none" width="83" height="83"/>
</svg>
