<?xml version="1.0" encoding="utf-8"?>
<!-- Generator: Adobe Illustrator 16.0.0, SVG Export Plug-In . SVG Version: 6.00 Build 0)  -->
<!DOCTYPE svg PUBLIC "-//W3C//DTD SVG 1.1//EN" "http://www.w3.org/Graphics/SVG/1.1/DTD/svg11.dtd">
<svg version="1.1" id="레이어_1" xmlns="http://www.w3.org/2000/svg" xmlns:xlink="http://www.w3.org/1999/xlink" x="0px"
	 y="0px" width="1241.335px" height="266.338px" viewBox="0 0 1241.335 266.338" enable-background="new 0 0 1241.335 266.338"
	 xml:space="preserve">
<g>
	<g>
		<path fill="#0D3893" d="M179.323,238.584c1.503-0.707,2.082-2.586,1.363-4.143c-0.742-1.57-2.607-2.27-4.09-1.555
			c-1.532,0.76-2.116,2.613-1.397,4.178C175.988,238.606,177.785,239.282,179.323,238.584z"/>
		<path fill="#0D3893" d="M213.787,51.806c0.698,0.677,0.954,0.86,1.436,0.905c0.634,0.098,1.957,0.025,3.559-1.568
			c2.437-2.5,1.456-4.719,0.489-5.659l-0.883-0.87l-5.892,5.956L213.787,51.806z"/>
		<path fill="#0D3893" d="M49.64,206.163c-0.155,0.127-0.34,0.254-0.553,0.398c1.034,1.123,2.235,2.486,2.235,2.486l1.4-1.221
			c0,0-1.286-1.42-2.256-2.59C50.203,205.561,49.934,205.858,49.64,206.163z"/>
		<path fill="#0D3893" d="M43.277,198.797c-1.445,1.271-1.684,3.379-0.51,4.744c1.186,1.346,3.258,1.361,4.734,0.127
			c1.445-1.264,1.694-3.369,0.506-4.699C46.842,197.625,44.712,197.596,43.277,198.797z"/>
		<path fill="#0D3893" d="M25.932,92.509c-2.732-0.908-5.358-0.768-7.382,0.284c-1.581,0.796-2.65,2.127-3.213,3.797
			c-0.671,2.119-0.856,5.972,5.459,7.954c5.08,1.632,9.625-0.118,10.94-4.34c0.238-0.766,0.508-2.256-0.299-3.859
			C30.558,94.692,28.731,93.377,25.932,92.509z"/>
		<path fill="#173273" d="M133.117,0C59.735,0-0.03,59.709-0.03,133.144c0,73.445,59.766,133.195,133.147,133.195
			c73.447,0,133.155-59.75,133.155-133.195C266.272,59.709,206.564,0,133.117,0L133.117,0z M242.471,75.601L242.471,75.601
			l0.783-0.379l3.495,7.079l-0.816,0.375c-0.703-1.363-0.976-1.867-2.098-1.33c0,0-12.114,5.964-13.452,6.61
			c-1.272,0.626-0.47,1.861,0.099,3.043l-0.813,0.37l-3.744-7.607l0.813-0.44c0.652,1.397,1.01,1.963,2.103,1.421
			c0,0,12.72-6.268,13.401-6.608C243.706,77.412,242.471,75.601,242.471,75.601L242.471,75.601z M225.979,69.148L225.979,69.148
			l0.087-1.424c0.211-3.383,1.086-5.329,2.882-6.559c2.423-1.666,5.476-0.774,7.494,2.162c1.678,2.452,1.601,3.602,1.601,3.602
			l-3.461,2.353l-0.6-0.912c0,0,1.054-0.458,1.427-1.662c0.222-0.608,0.356-1.546-0.471-2.774c-0.956-1.359-2.328-1.7-3.479-0.937
			c-0.838,0.566-1.25,1.344-1.379,4.046l-0.063,0.875c-0.24,3.92-1.017,5.781-3.047,7.141c-0.903,0.621-2.777,1.497-5.126,0.542
			c-1.184-0.526-2.251-1.447-3.171-2.777c-0.842-1.278-1.757-3.124-1.556-4.209l3.966-2.709l0.528,0.831
			c0,0-1.038,0.987-1.329,1.346c-1.331,1.63-0.618,3.252-0.023,4.059c1.125,1.692,2.841,1.851,3.871,1.13
			C225.152,72.582,225.815,71.625,225.979,69.148L225.979,69.148z M215.362,39.478L215.362,39.478l5.298,5.218
			c1.115,1.082,2.262,2.396,2.576,4.11c0.177,0.747,0.093,2.437-1.219,3.792c-1.444,1.458-3.345,1.971-6.253,1.714
			c-0.045,0.256-0.138,1.201-0.138,1.201c-0.323,2.946-0.573,5.274-0.621,7.102c-0.011,1.931,0.542,2.76,0.759,3.112l0.42,0.507
			l-0.568,0.597l-1.829-1.824c-0.979-0.961-1.373-1.533-1.601-2.308c-0.394-1.151-0.242-2.6,0.125-5.097l0.726-4.311l-1.662-1.637
			l-3.977,4.037c-1.011,1.087,0.162,1.989,1.065,2.872l-0.645,0.623l-6.038-5.975l0.635-0.647c1.102,1.079,1.557,1.492,2.428,0.631
			c0,0,9.982-10.077,10.54-10.652c1.126-1.14-0.643-2.42-0.643-2.42L215.362,39.478L215.362,39.478z M196.912,26.449L196.912,26.449
			l10.292,6.937l-2.18,3.256l-0.732-0.523c0.732-1.046,1.176-1.865-0.27-2.83c-0.579-0.403-2.994-2.008-2.994-2.008l-3.611,5.362
			l3.078,2.077c1.065,0.694,1.337,0.353,2.061-0.749l0.748,0.52l-2.896,4.325l-0.764-0.505c0.764-1.099,0.985-1.474-0.079-2.172
			l-3.107-2.087v0.032l-4.28,6.427c0,0,2.607,1.734,3.306,2.186c1.056,0.754,2.063,0.573,3.122-0.981l0.743,0.529l-2.364,3.554
			l-10.556-7.062l0.544-0.809c1.218,0.809,1.683,1.29,2.829-0.409c0,0,6.707-10.053,7.694-11.55c1.022-1.504-0.425-2.305-1.12-2.768
			L196.912,26.449L196.912,26.449z M172.829,14.755L172.829,14.755l6.7,2.941l-0.346,0.839l-0.689-0.276
			c-0.317-0.158-0.563-0.019-0.595,0.059c-0.222,0.155-0.167,0.516-0.222,0.68l-0.119,2.638c-0.177,3.025-0.492,9.937-0.513,10.44
			c0.436-0.416,3.482-3.452,3.482-3.452l5.34-5.416c0.325-0.352,0.645-0.795,0.727-1.09c0.061-0.224-0.135-0.397-0.352-0.512
			l-0.697-0.263l0.409-0.859l5.746,2.542l-0.21,0.871l-0.646-0.283c-1.226-0.538-2.407,0.502-2.407,0.502l-3.661,3.358
			l-10.221,9.379l-0.747-0.326l0.293-17.994c0.026-0.87-0.108-1.623-0.336-2.04c-0.354-0.555-1.294-0.907-1.294-0.907
			L172.829,14.755L172.829,14.755z M154.109,29.166L154.109,29.166c1.487,0.324,2.143,0.434,2.396-0.784
			c0,0,3.188-13.81,3.378-14.583c0.34-1.552-1.824-1.738-1.824-1.738l0.19-0.887l7.742,1.798l-0.217,0.845
			c-1.535-0.297-2.122-0.405-2.392,0.816c0,0-3.015,13.149-3.366,14.534c-0.324,1.484,1.157,1.643,2.376,1.917l-0.212,0.842
			L153.919,30L154.109,29.166L154.109,29.166z M126.662,26.67L126.662,26.67c1.137,0.074,2.288,0.238,2.407-1.864
			c0.118-2.16,0.973-16.379,0.973-16.379l1.196,0.081c2.122,2.452,12.218,14.228,12.548,14.632c0,0,0.536-9.107,0.671-11.044
			c0.119-1.961-1.456-1.979-2.407-2.04l0.048-0.88l6.573,0.376l-0.048,0.938c-1.072-0.114-2.047-0.236-2.208,1.725
			c-0.113,1.951-0.975,16.508-0.975,16.508l-1.282-0.078l-12.461-14.363l-0.639,10.614c-0.15,2.265,1.461,2.125,2.722,2.205
			l-0.048,0.924l-7.131-0.452L126.662,26.67L126.662,26.67z M106.722,11.494L106.722,11.494l0.211,0.928
			c-1.509,0.291-2.114,0.452-1.834,1.679l1.684,8.47c0.779,3.878,1.915,4.945,3.051,5.539c1.201,0.646,2.273,0.565,3.127,0.399
			c0.613-0.127,2.122-0.549,3.03-1.929c1.001-1.538,0.655-3.666,0.147-6.258c0,0-1.542-7.823-1.64-8.125
			c-0.315-1.58-2.365-0.864-2.365-0.864l-0.196-0.841l6.744-1.365l0.184,0.876c-1.495,0.299-2.053,0.455-1.846,1.687l1.554,7.672
			c0.563,2.855,0.851,5.805-0.915,8.01c-1.52,2.011-3.393,2.595-4.827,2.906c-1.097,0.207-3.672,0.716-5.945-0.634
			c-1.812-1.074-2.965-3.065-3.577-6.226c0,0-1.653-8.292-1.757-8.663c-0.294-1.547-2.391-0.795-2.391-0.795l-0.164-0.881
			L106.722,11.494L106.722,11.494z M78.783,21.127L78.783,21.127l0.454,0.798c-1.376,0.721-1.905,1.02-1.337,2.132
			c0,0,6.184,11.984,6.849,13.311c0.671,1.3,1.905,0.444,3.052-0.116l0.37,0.798l-7.564,3.875l-0.407-0.763
			c1.358-0.695,1.9-1.04,1.332-2.132c0,0-6.439-12.639-6.828-13.315c-0.722-1.453-2.518-0.168-2.518-0.168l-0.378-0.795
			L78.783,21.127L78.783,21.127z M63.385,29.599L63.385,29.599l2.341,3.174l-0.74,0.516c-0.769-1.039-1.363-1.715-2.727-0.691
			c-0.607,0.432-2.938,2.154-2.938,2.154l3.884,5.162l2.996-2.198c0.984-0.783,0.77-1.105-0.031-2.19l0.716-0.534l3.099,4.162
			l-0.716,0.54c-0.776-1.039-1.069-1.4-2.083-0.62l-2.969,2.219v0.034l4.616,6.138c0,0,2.494-1.828,3.218-2.348
			c1.008-0.799,1.229-1.77,0.098-3.291l0.724-0.533l2.565,3.432l-10.146,7.586l-0.6-0.768c1.187-0.873,1.786-1.13,0.573-2.818
			c0,0-7.261-9.65-8.344-11.114c-1.043-1.42-2.319-0.355-2.976,0.152l-0.536-0.707L63.385,29.599L63.385,29.599z M43.37,46.389
			L43.37,46.389c2.046-2.146,3.202-2.309,3.202-2.309l2.999,2.861l-0.737,0.796c0,0-0.713-0.928-1.942-1.069
			c-0.618-0.048-1.585-0.038-2.593,1.069c-1.161,1.203-1.217,2.628-0.194,3.583c0.721,0.655,1.554,0.938,4.228,0.514l0.88-0.146
			c3.837-0.583,5.839-0.177,7.62,1.506c0.779,0.744,2.071,2.394,1.58,4.888c-0.268,1.297-0.933,2.514-2.049,3.694
			c-1.048,1.101-2.713,2.4-3.78,2.4l-3.496-3.31l0.688-0.73c0,0,1.208,0.849,1.606,1.047c1.899,1.004,3.345-0.087,4.011-0.782
			c1.396-1.456,1.174-3.208,0.265-4.085c-0.888-0.805-1.953-1.273-4.381-0.949l-1.451,0.252c-3.344,0.488-5.447,0.033-7.027-1.456
			C40.686,52.155,40.892,48.94,43.37,46.389L43.37,46.389z M23.199,74.04L23.199,74.04c3.146-0.696,18.329-3.986,18.791-4.119
			c0,0-7.733-4.785-9.405-5.824c-1.654-0.997-2.397,0.353-2.92,1.181l-0.774-0.47l3.461-5.602l0.796,0.503
			c-0.563,0.873-1.21,1.684,0.479,2.737c1.683,1.024,14.093,8.663,14.093,8.663l-0.691,1.089l-18.522,4.207l9.02,5.57
			c1.927,1.2,2.608-0.302,3.27-1.358l0.742,0.451l-3.738,6.078l-0.819-0.453c0.624-0.975,1.347-1.9-0.492-3.022
			c-1.817-1.117-13.921-8.611-13.921-8.611L23.199,74.04L23.199,74.04z M24.642,168.456L24.642,168.456
			c-2.076,0-3.738-1.699-3.738-3.777c0-2.057,1.662-3.709,3.738-3.709c2.03,0,3.724,1.652,3.724,3.709
			C28.365,166.756,26.672,168.456,24.642,168.456L24.642,168.456z M27.961,126.989L27.961,126.989l-0.861-0.076
			c0.164-1.198,0.2-2.094-1.44-2.257c-1.596-0.161-4.144-0.377-4.144-0.377c-1.314-0.123-1.846,0.033-2.623,0.3
			c-0.369,0.146-6.119,2.948-7.506,3.715c-0.883,0.48-1.58,1.025-1.9,1.498c-0.372,0.55-0.426,1.555-0.426,1.555l-0.913-0.092
			l0.668-7.125l0.872,0.089c0,0-0.042,0.403-0.042,0.587l0.042,0.114c0.05,0.137,0.119,0.207,0.222,0.207
			c0.196,0,0.65-0.175,0.78-0.226c0.599-0.244,7.405-3.371,7.405-3.371s-5.755-3.931-6.101-4.13c-0.5-0.264-0.867-0.403-1.191-0.403
			c-0.228-0.033-0.434,0.086-0.434,0.267c-0.021,0.167-0.059,0.657-0.059,0.657l-0.93-0.081l0.61-6.335l0.883,0.083
			c0,0-0.061,0.449-0.071,0.706c0,0.264,0.011,0.634,0.175,1.024c0.192,0.487,0.43,0.762,1.075,1.361
			c0.908,0.909,6.412,4.917,7.4,5.426c0.798,0.436,1.59,0.501,2.364,0.572c0,0,2.257,0.22,4.114,0.401
			c1.839,0.162,1.839-1.187,1.974-2.59l0.826,0.077L27.961,126.989L27.961,126.989z M20.369,108.464L20.369,108.464
			c-2.565-0.826-4.739-2.583-5.915-4.896c-1.194-2.334-1.335-5.152-0.399-8.141c0.957-3.067,2.672-5.319,4.979-6.519
			c2.087-1.096,4.597-1.247,7.194-0.405c2.777,0.892,5.018,2.707,6.252,5.084c1.243,2.413,1.415,5.215,0.513,8.1
			C30.875,108.409,24.962,109.89,20.369,108.464L20.369,108.464z M43.082,221.176L43.082,221.176
			c-0.124-0.193-10.685-12.277-10.838-12.457c0.185-0.154,3.876-3.365,3.876-3.365c0.522-0.451,0.795-1.217,0.522-1.498
			c0.088-0.076,0.272-0.236,0.336-0.314c0.18,0.143,2.819,3.207,2.819,3.207c-0.156,0.139-3.257,2.801-3.257,2.801
			s8.424,9.697,8.58,9.881C44.965,219.54,43.277,221.032,43.082,221.176L43.082,221.176z M47.32,217.129L47.32,217.129
			c-0.132-0.143-2.121-2.447-2.257-2.609c0.172-0.131,4.204-3.695,4.204-3.695s-1.922-2.184-2.906-3.316
			c-1.97,0.15-4.02-0.66-5.48-2.328c-2.328-2.695-2.257-6.646,0.238-8.818c2.488-2.152,6.41-1.727,8.754,0.973
			c1.3,1.463,1.878,3.309,1.672,5.07c0.61,0.68,3.207,3.645,3.207,3.645l0.613-0.516c0.563-0.475,0.827-1.219,0.563-1.523
			c0.097-0.115,0.264-0.23,0.366-0.326c0.109,0.172,2.624,3.064,2.764,3.229C58.903,207.038,47.502,216.987,47.32,217.129
			L47.32,217.129z M76.255,234.799L76.255,234.799l-0.063-0.109l-0.114,0.047c-3.305,1.873-5.741,2.17-5.741,2.17
			c-0.082-0.158-0.752-1.848-0.833-2.064c7.304-2.412,9.767-7.691,9.825-7.805v-0.031c0.721-1.57-0.136-2.219-0.188-2.25
			c0.053-0.133,0.156-0.338,0.206-0.451c0.182,0.113,4.354,1.971,4.545,2.086c-1.273,2.756-3.053,4.994-5.478,6.82l-0.053,0.063
			l0.113,0.215c1.277,2.359,2.159,4.566,2.563,6.203c-0.14,0.029-2.563,1.426-2.835,1.607
			C77.483,237.327,76.729,235.803,76.255,234.799L76.255,234.799z M79.192,247.42L79.192,247.42
			c0.077-0.25,5.427-11.797,5.427-11.797s-3.109-1.443-3.289-1.52c0.066-0.213,1.044-2.295,1.115-2.434
			c0.227,0.063,3.301,1.465,3.301,1.465l1.672-3.656c0.296-0.621,0.243-1.404-0.104-1.564h-0.031
			c0.047-0.137,0.135-0.338,0.197-0.484c0.206,0.094,3.47,1.615,3.47,1.615l0.026,0.029c-0.107,0.203-8.898,19.395-9.013,19.627
			C81.784,248.583,79.378,247.495,79.192,247.42L79.192,247.42z M86.384,250.694L86.384,250.694c-0.157-0.047-2.916-1.33-3.128-1.41
			c0.104-0.209,8.923-19.41,9.011-19.623c0.205,0.066,3.125,1.426,3.125,1.426h0.02C95.308,231.307,86.487,250.479,86.384,250.694
			L86.384,250.694z M142.877,259.374L142.877,259.374c-0.248,0-3.269,0-3.454,0c0-0.223,0-13.01,0-13.01h-1.579
			c0,0,0,12.787,0,13.01c-0.198,0-3.018,0-3.234-0.082c0,0,0-1.781,0-4.207c-2.375,0-11.52,0-11.736,0c0-0.221,0-14.889,0-14.889
			c0-0.732-0.367-1.381-0.77-1.381c0-0.145,0-0.371,0-0.469c0.217,0,9.491,0,9.734,0c0,0.158,0,2.459,0,2.656
			c-0.243,0-5.52,0-5.52,0v11.363c0,0,6.365,0,8.291,0c0-5.625,0-12.674,0-12.674c0-0.729-0.37-1.432-0.779-1.432
			c0-0.143,0-0.352,0-0.467c0.223,0,3.815,0,4.014,0c0,0.23,0,5.898,0,5.898h1.579c0,0,0-5.668,0-5.898c0.218,0,3.454,0,3.454,0
			C142.877,238.024,142.877,259.151,142.877,259.374L142.877,259.374z M172.403,238.409L172.403,238.409
			c-0.682-1.404-0.618-2.908,0-4.305c-1.213,0.551-2.074,0.988-2.105,1c-0.099-0.207-1.049-2.232-1.168-2.43
			c0.208-0.074,4.68-2.211,4.68-2.211l-0.077-0.133c-0.347-0.604-0.885-0.963-1.223-0.777c-0.037-0.102-0.151-0.287-0.199-0.428
			c0.199-0.104,3.837-1.824,3.837-1.824c0.098,0.178,0.78,1.631,0.78,1.631s4.152-1.977,4.349-2.09
			c0.108,0.195,1.094,2.232,1.146,2.436c-0.026,0.031-0.967,0.449-2.299,1.127c1.472,0.391,2.695,1.328,3.337,2.674
			c1.316,2.691-0.124,6.092-3.171,7.564C177.233,242.088,173.706,241.098,172.403,238.409L172.403,238.409z M191.93,234.69
			L191.93,234.69c-0.173,0.109-2.907,1.402-3.1,1.5c-0.082-0.225-4.534-9.473-4.534-9.473c-0.298-0.652-0.959-1.133-1.316-0.939
			c-0.047-0.111-0.16-0.309-0.205-0.402c0.175-0.117,3.636-1.764,3.82-1.852c0.098,0.199,2.624,5.445,2.624,5.445
			s2.866-1.393,3.063-1.49c0.086,0.188,0.953,2,1.054,2.201c-0.215,0.1-3.079,1.439-3.079,1.439S191.857,234.477,191.93,234.69
			L191.93,234.69z M192.796,244.473L192.796,244.473c-0.076-0.195-2.003-4.201-2.003-4.201s-12.833,6.174-13.028,6.271
			c-0.104-0.18-1.089-2.266-1.168-2.445c0.208-0.117,15.942-7.613,16.144-7.77c0.104,0.213,3.097,6.455,3.182,6.645
			C195.745,243.075,193.013,244.387,192.796,244.473L192.796,244.473z M133.117,230.211L133.117,230.211
			c-53.59,0-97.024-43.436-97.024-97.019c0-53.612,43.435-97.074,97.024-97.074c53.617,0,97.056,43.462,97.056,97.074
			C230.173,186.776,186.734,230.211,133.117,230.211L133.117,230.211z M223.171,220.889L223.171,220.889
			c-0.167-0.123-1.927-1.574-2.056-1.715c0.129-0.146,2.482-2.988,2.482-2.988l-4.414-3.637c-0.531-0.463-1.311-0.631-1.549-0.311
			h-0.021c-0.118-0.076-0.293-0.217-0.377-0.271c0.16-0.166,2.33-2.816,2.46-2.971c0.185,0.154,5.854,4.83,5.854,4.83l1.12-1.369
			c0,0-5.681-4.695-5.854-4.84c0.135-0.166,1.981-2.328,2.105-2.527c0.178,0.146,5.855,4.836,5.855,4.836s0.755-0.879,1.704-2.031
			c-2.5-2.084-11.211-9.316-11.211-9.316s-8.489,10.223-8.632,10.418c-0.177-0.145-1.91-1.549-2.099-1.715
			c0.156-0.199,10.859-13.037,10.859-13.037c0.167,0.096,10.514,8.697,13.283,10.992c0.729-0.873,1.3-1.568,1.347-1.617
			c0.167,0.131,1.895,1.59,2.057,1.697C235.924,205.516,223.329,220.7,223.171,220.889L223.171,220.889z M236.193,107.855
			L236.193,107.855l-0.863,0.28l-2.405-8.191l0.851-0.265c0.455,1.475,0.672,2.093,1.855,1.712c0,0,12.601-3.674,14.814-4.347
			c-0.811-2.739-0.959-3.324-1.07-3.636c-0.483-1.667-1.413-1.582-2.755-1.403l-0.265-0.992l3.935-0.508l4.637,15.614l-3.63,1.646
			l-0.32-1.007c1.211-0.551,2.035-0.972,1.557-2.619c-0.101-0.306-0.249-0.919-1.075-3.651c-1.899,0.557-13.51,3.971-14.815,4.358
			C235.253,105.271,235.837,106.652,236.193,107.855L236.193,107.855z M242.946,169.008L242.946,169.008
			c-2.095,0-3.793-1.701-3.793-3.768c0-2.133,1.698-3.83,3.793-3.83c2.093,0,3.803,1.697,3.803,3.83
			C246.749,167.307,245.039,169.008,242.946,169.008L242.946,169.008z M256.998,130.782L256.998,130.782
			c-0.037-0.257-0.14-0.648-0.389-0.99c-0.256-0.44-0.552-0.666-1.273-1.166c-1.096-0.702-7.223-3.569-8.314-3.901
			c-0.855-0.279-1.596-0.196-2.407-0.117c0,0-2.296,0.211-4.108,0.425c-1.85,0.153-1.644,1.438-1.472,2.859l-0.812,0.09
			l-0.832-8.426l0.832-0.078c0.108,1.235,0.27,2.115,1.845,1.936c1.63-0.158,4.198-0.397,4.198-0.397
			c1.258-0.12,1.765-0.41,2.468-0.801c0.352-0.193,5.454-4.024,6.672-5.036c0.784-0.645,1.347-1.317,1.58-1.801
			c0.293-0.669,0.174-1.662,0.174-1.662l0.854-0.087l0.719,7.146l-0.87,0.091c0,0-0.044-0.446-0.102-0.59l-0.043-0.086
			c-0.024-0.125-0.169-0.194-0.251-0.161c-0.188,0-0.589,0.248-0.714,0.325c-0.563,0.344-6.639,4.704-6.639,4.704
			s6.37,2.769,6.795,2.907c0.51,0.167,0.909,0.25,1.229,0.22c0.217-0.038,0.376-0.22,0.346-0.358c0-0.198-0.053-0.7-0.053-0.7
			l0.941-0.069l0.607,6.335l-0.909,0.049C257.069,131.441,257.062,131.025,256.998,130.782z"/>
		<path fill="#173273" d="M65.12,146.31c0.32,1.492,0.666,2.984,1.081,4.441c3.258,12.574,9.171,27.117,21.129,41.09l45.715-45.733
			l45.654,45.733c12.012-13.973,17.915-28.516,21.212-41.09c0.367-1.457,0.719-2.949,1.012-4.441
			c-21.975-4.028-44.671-6.135-67.904-6.135C109.783,140.174,87.099,142.282,65.12,146.31z"/>
		<path fill="#173273" d="M133.019,86.559c-7.878,0-14.291,6.385-14.291,14.259c0,7.868,6.413,14.251,14.291,14.251
			c7.882,0,14.278-6.383,14.278-14.251C147.297,92.944,140.9,86.559,133.019,86.559z"/>
		<path fill="#0D3893" d="M136.351,201.018c-0.53,0.367-1.396,1.096-1.396,2.406c0,1.152,0.812,1.961,1.824,1.961
			c1.012,0,1.703-0.744,1.703-1.871C138.482,202.292,137.532,201.69,136.351,201.018z"/>
		<path fill="#0D3893" d="M126.855,201.018c-0.559,0.367-1.416,1.096-1.416,2.406c0,1.152,0.779,1.961,1.791,1.961
			c1.027,0,1.736-0.744,1.736-1.871C128.967,202.292,128.007,201.69,126.855,201.018z"/>
		<path fill="#0D3893" d="M137.033,199.553c0.525-0.244,1.109-0.77,1.109-1.877c0-0.99-0.635-1.441-1.305-1.441
			c-1.071,0-1.473,0.771-1.473,1.426C135.365,198.374,135.82,198.827,137.033,199.553z"/>
		<path fill="#0D3893" d="M127.5,199.553c0.507-0.244,1.157-0.77,1.157-1.877c0-0.99-0.671-1.441-1.338-1.441
			c-1.101,0-1.456,0.771-1.456,1.426C125.863,198.374,126.276,198.827,127.5,199.553z"/>
		<path fill="#173273" d="M98.58,203.129c8.926,7.779,20.171,15.189,34.465,21.77c14.252-6.58,25.505-13.99,34.46-21.77
			l-34.46-34.514L98.58,203.129L98.58,203.129z M121.359,206.262L121.359,206.262l-1.729-0.07h-0.578h-0.692l-1.628,0.07
			c-0.361,0-0.428-0.213-0.428-0.342c0-0.23,0.124-0.359,0.299-0.359l1.032-0.045c0.32-0.086,0.353-0.162,0.404-0.551l0.051-3.109
			v-2.191v-1.777c0,0,0-0.262-0.027-0.291c-0.132,0-0.763,0.291-1.099,0.438l-0.428,0.174l-0.232,0.08
			c-0.167,0-0.274-0.141-0.274-0.338c0-0.127,0.058-0.289,0.222-0.354c0.068-0.088,2.645-1.754,3.157-2.121l0.552-0.221
			c0,0,0.249,0.043,0.249,0.51v0.176l-0.09,3.369v2.547l0.09,3.109c0.008,0.389,0.098,0.465,0.37,0.551l0.883,0.045
			c0.156,0,0.295,0.129,0.295,0.359C121.758,206.049,121.7,206.262,121.359,206.262L121.359,206.262z M127.148,206.417
			L127.148,206.417c-2.24,0-3.665-1.1-3.665-2.875c0-1.25,0.866-2.381,2.322-3.078c-0.815-0.488-1.775-1.234-1.775-2.514
			c0-1.086,0.909-2.695,3.47-2.695c1.813,0,3.03,0.889,3.03,2.342c0,1.434-1.218,2.217-1.828,2.508
			c0.956,0.539,2.272,1.395,2.272,3.076C130.975,204.817,129.658,206.417,127.148,206.417L127.148,206.417z M142.423,205.237
			L142.423,205.237l0.036-1.553c0.011-0.092,0.082-0.391,0.373-0.391c0.133,0,0.289,0.018,0.289,0.416
			c0,1.107,0.557,1.645,1.666,1.645c0.978,0,2.099-0.586,2.099-2.324c0-2.15-2.408-2.961-3.321-3.055
			c-0.391-0.088-0.412-0.342-0.412-0.51l0.346-3.623c0-0.141,0.045-0.367,0.412-0.367h3.387l0.898-0.035l0.146-0.033
			c0.329,0,0.329,0.295,0.329,0.455l-0.18,1.799c-0.026,0.172-0.149,0.303-0.414,0.303c0,0-0.232-0.014-0.232-0.367
			c0-0.262,0-0.557-0.985-0.557c0,0-2.072,0-2.382,0c0,0.262-0.118,1.057-0.123,1.334c2.24,0.41,4.544,1.617,4.544,3.98
			c0,1.961-1.482,4.063-4.74,4.063c-0.507,0-1.037-0.074-1.354-0.24h-0.03c-0.352-0.176-0.352-0.418-0.352-0.746V205.237
			L142.423,205.237z M137.006,195.254L137.006,195.254c1.808,0,3.002,0.889,3.002,2.342c0,1.434-1.137,2.217-1.778,2.508
			c0.93,0.539,2.272,1.395,2.272,3.076c0,1.637-1.311,3.236-3.82,3.236c-2.236,0-3.702-1.1-3.702-2.875
			c0-1.25,0.894-2.381,2.354-3.078c-0.861-0.488-1.792-1.234-1.792-2.514C133.542,196.864,134.445,195.254,137.006,195.254z"/>
		<path fill="#173273" d="M203.177,120.986V73.373c0,0-40.62,1.284-70.132-21.411c-29.558,22.695-70.134,21.411-70.134,21.411
			v47.613c0,0-0.243,10.169,1.512,21.357c22.206-4.08,45.123-6.25,68.596-6.25c23.486,0,46.413,2.17,68.623,6.271
			C203.443,131.185,203.177,120.986,203.177,120.986L203.177,120.986z M84.997,99.309L84.997,99.309
			c0-0.893,0.717-1.617,1.632-1.617h5.344c0.206,0,0.407,0.177,0.407,0.388v13.488c0,0.205-0.201,0.388-0.407,0.388h-6.579
			c-0.242,0-0.396-0.184-0.396-0.388V99.309L84.997,99.309z M75.897,98.081L75.897,98.081c0-0.211,0.156-0.388,0.429-0.388h5.292
			c0.909,0,1.659,0.724,1.659,1.617v12.26c0,0.205-0.188,0.388-0.399,0.388h-6.552c-0.272,0-0.429-0.184-0.429-0.388V98.081
			L75.897,98.081z M95.81,114.596L95.81,114.596c0,0.209-0.185,0.398-0.398,0.398h-8.34c-0.563,1.063-1.651,1.788-2.943,1.788
			c-1.25,0-2.396-0.725-2.942-1.788h-8.361c-0.221,0-0.406-0.189-0.406-0.398v-14.19c0-0.177,0.186-0.368,0.406-0.368h1.391v13.34
			h8.313v0.152c0.09,0.804,0.779,1.458,1.601,1.458c0.812,0,1.504-0.655,1.586-1.458l0.032-0.152h8.277v-13.34h1.388
			c0.214,0,0.398,0.191,0.398,0.368V114.596L95.81,114.596z M133.045,128.626L133.045,128.626
			c-15.409,0-27.897-12.435-27.897-27.808c0-15.343,12.488-27.876,27.897-27.876c15.389,0,27.87,12.533,27.87,27.876
			C160.915,116.191,148.434,128.626,133.045,128.626L133.045,128.626z M182.592,122.28L182.592,122.28
			c-0.093,0.483-0.468,0.856-0.965,0.856h-0.893c-0.497,0-0.875-0.373-0.957-0.856l-1.765-11.329
			c-0.053-0.239,0.164-0.462,0.454-0.462h5.417c0.304,0,0.521,0.224,0.47,0.462L182.592,122.28L182.592,122.28z M187.205,105.508
			L187.205,105.508c0,0,0.727-0.01,0.479,0.61l-0.851,2.638c0,0-0.156,0.338-0.667,0.338h-10.009c-0.499,0-0.659-0.338-0.659-0.338
			l-0.852-2.628c-0.307-0.694,0.418-0.62,0.418-0.62h3.112c0.227-0.449,0.29-0.964,0-1.437c-1.604-2.342-5.12-3.934-5.076-5.654
			c0.021-1.986,2.899-4.828,3.047-4.881c0.177-0.158,0.33-0.102,0.28,0.075c-1.115,4.634,6.471,5.388,5.696,8.435
			c-0.333,1.25-1.2,2.499-2,3.462h1.983c0.842-1.048,2.209-3.198,1.724-4.563c-0.228-0.716-0.613-1.153-1.083-1.636
			c-0.996-0.961-2.328-1.7-3.29-2.542c-1.208-0.968-1.937-2.102-1.937-3.128c0.058-2.541,4.978-6.22,5.081-6.293
			c0.248-0.199,0.459-0.144,0.377,0.073c-0.557,1.159-0.956,2.626-0.769,3.663c0.32,2.378,6.387,5.436,6.759,7.656
			c0.325,2.018-2.886,5.543-4.307,6.771H187.205z"/>
	</g>
	<g>
		<g>
			<path fill="#173273" d="M401.739,119.108c-3.915,6.172-9.316,11.066-16.197,14.685c-6.883,3.621-14.596,5.429-23.139,5.429
				c-6.764,0-12.904-1.067-18.422-3.204c-5.519-2.136-10.235-5.042-14.151-8.722c-3.915-3.677-6.941-7.979-9.077-12.904
				c-2.137-4.923-3.204-10.174-3.204-15.752c0-5.813,1.157-11.184,3.471-16.109c2.313-4.922,5.487-9.225,9.522-12.904
				c4.033-3.56,8.78-6.347,14.24-8.365c5.456-2.017,11.33-3.026,17.621-3.026c8.899,0,16.731,1.869,23.495,5.607
				c6.764,3.737,12.042,8.574,15.841,14.506v-6.941h24.208V59.302h25.81v105.372h-25.81V130.5h-24.208V119.108z M376.643,84.221
				c-3.442-3.916-8.188-5.874-14.239-5.874s-10.77,1.958-14.15,5.874c-3.383,3.916-5.073,8.722-5.073,14.418
				c0,5.935,1.69,10.829,5.073,14.684c3.381,3.858,8.099,5.785,14.15,5.785s10.797-1.927,14.239-5.785
				c3.44-3.854,5.162-8.749,5.162-14.684C381.805,92.943,380.083,88.137,376.643,84.221z M433.778,193.333
				c6.525-0.832,12.816-2.375,18.867-4.629l5.34,18.689c-6.171,2.137-12.698,3.828-19.578,5.074
				c-6.884,1.246-14.894,1.867-24.029,1.867h-49.482c-6.527,0-11.601-1.543-15.219-4.627c-3.621-3.088-5.43-7.832-5.43-14.24
				v-38.623h25.81v32.928c0,1.779,0.356,3.025,1.068,3.738c0.712,0.711,2.017,1.068,3.915,1.068h38.625
				C420.546,194.579,427.251,194.161,433.778,193.333z M406.901,105.135c-0.355,2.078-0.831,4.005-1.424,5.785h20.47V90.985h-19.224
				c0.236,1.308,0.414,2.581,0.534,3.827c0.116,1.246,0.178,2.522,0.178,3.827C407.436,100.894,407.258,103.061,406.901,105.135z"/>
			<path fill="#173273" d="M511.739,63.574c2.252,4.272,3.796,8.516,4.627,12.727c0.829,4.214,1.246,8.396,1.246,12.549
				c0,5.34-0.239,10.354-0.712,15.04c-0.476,4.689-1.188,9.167-2.136,13.438c1.185,0,2.342,0.09,3.471,0.268
				c1.127,0.178,2.105,0.387,2.938,0.623c2.135,0.951,4.094,2.345,5.873,4.183c1.78,1.841,3.383,4.124,4.807,6.853
				c1.184,2.731,2.43,5.46,3.737,8.188c1.304,2.73,2.608,5.578,3.916,8.543c1.424,2.968,2.817,6.052,4.183,9.256
				c1.363,3.205,2.876,6.527,4.539,9.969l-18.334,10.322c-3.442-7.475-6.318-13.705-8.633-18.688
				c-2.313-4.985-4.538-9.729-6.674-14.241c-0.951-1.779-1.931-3.173-2.938-4.183c-1.01-1.007-2.107-1.691-3.293-2.047
				c-3.203,7.12-7.27,13.944-12.192,20.471c-4.925,6.527-10.651,13.17-17.177,19.934l-16.73-14.951
				c5.695-6.052,10.471-11.806,14.328-17.266c3.854-5.456,7.031-11.035,9.522-16.731c2.372-5.695,4.094-11.687,5.162-17.978
				c1.067-6.288,1.602-13.229,1.602-20.825c0-3.56-0.386-6.853-1.157-9.879c-0.773-3.025-1.69-5.606-2.758-7.742L511.739,63.574z
				 M551.787,201.165v-75.648h-20.291v-21.359h20.291V61.082h24.208v140.083H551.787z M586.675,204.723V61.082h24.385v143.642
				H586.675z"/>
			<path fill="#173273" d="M652.532,101.842h33.285V65.354h25.274v96.83c-2.491,1.543-5.489,3.055-8.989,4.537
				c-3.501,1.486-7.15,2.76-10.945,3.828c-3.8,1.188-7.654,2.135-11.57,2.848c-3.916,0.711-7.537,1.068-10.857,1.068h-19.224
				c-8.071,0-13.794-1.572-17.177-4.717c-3.381-3.143-5.072-7.922-5.072-14.33V65.354h25.275V101.842z M653.688,153.194
				c0.771,0.653,2.047,0.979,3.827,0.979h8.899c3.084,0,6.377-0.384,9.879-1.157c3.498-0.771,6.675-1.869,9.523-3.293v-27.589
				h-33.285v27.411C652.532,151.325,652.915,152.543,653.688,153.194z M780.331,132.28h-22.427v72.443h-25.81V61.082h25.81v50.551
				h22.427V132.28z"/>
			<path fill="#173273" d="M926.642,159.87H784.247v-19.758h142.395V159.87z M827.499,167.522v21.539
				c0,1.779,0.445,3.143,1.336,4.094c0.891,0.947,2.283,1.424,4.184,1.424h38.98c6.881,0,13.465-0.596,19.756-1.781
				c6.289-1.188,12.461-2.73,18.512-4.627l5.34,18.154c-6.172,2.137-12.4,4.006-18.689,5.607
				c-6.291,1.602-14.002,2.402-23.139,2.402h-51.619c-6.527,0-11.6-1.543-15.217-4.627c-3.621-3.088-5.43-7.359-5.43-12.816v-29.369
				H827.499z M828.39,108.25c0,1.663,0.236,2.759,0.713,3.293c0.473,0.534,1.779,0.801,3.916,0.801h22.783
				c7.83,0,16.313-0.206,25.453-0.623c9.135-0.414,17.977-1.869,26.52-4.36l3.916,17.087c-7.832,2.848-16.793,4.601-26.877,5.251
				c-10.086,0.653-20.174,0.979-30.258,0.979h-29.904c-7.475,0-13.023-1.215-16.643-3.648c-3.621-2.431-5.428-7.209-5.428-14.328
				V85.823h77.248V77.28h-77.248V58.946H905.64v38.447c-4.867,2.136-9.375,3.648-13.527,4.538
				c-4.156,0.891-8.783,1.335-13.885,1.335H828.39V108.25z"/>
			<path fill="#173273" d="M937.499,163.963c6.645-4.389,13.141-9.195,19.49-14.418c6.348-5.221,12.131-10.502,17.355-15.842
				c5.34-5.34,9.994-10.618,13.973-15.842c3.973-5.22,6.969-10.084,8.988-14.596c0.592-1.304,0.77-2.52,0.533-3.648
				c-0.238-1.126-1.307-1.691-3.203-1.691h-53.754V77.813h27.943c0.949-1.896,1.541-3.974,1.781-6.229
				c0.236-2.253,0.059-4.45-0.535-6.586l-2.135-6.586l23.672-6.407c0.238,0.712,0.504,1.485,0.803,2.313
				c0.295,0.832,0.623,1.603,0.979,2.314c0.236,0.831,0.473,1.663,0.711,2.491c0.236,0.832,0.473,1.544,0.713,2.137
				c0.473,3.203,0.445,6.202-0.09,8.988c-0.533,2.79-1.453,5.313-2.758,7.564h21.715c5.1,0,8.514,1.514,10.234,4.539
				c1.719,3.026,2.52,6.973,2.402,11.837c-0.238,5.104-2.135,11.008-5.695,17.71c-3.561,6.706-8.188,13.617-13.883,20.736
				c2.135,0.712,4.121,1.722,5.963,3.026c1.838,1.307,3.648,2.848,5.428,4.628c3.441,3.68,7.09,7.804,10.947,12.37
				c3.855,4.569,7.682,9.286,11.48,14.151l-16.197,14.773c-2.256-2.729-4.48-5.43-6.676-8.1s-4.242-5.189-6.141-7.564
				c-2.018-2.492-3.887-4.717-5.605-6.674c-1.723-1.959-3.234-3.589-4.539-4.896c-1.424-1.305-2.91-2.431-4.451-3.382
				c-1.543-0.948-3.203-1.719-4.982-2.314c-6.172,6.172-12.848,12.047-20.025,17.623c-7.18,5.578-14.506,10.5-21.982,14.773
				L937.499,163.963z M1071.351,204.723h-25.631V61.082h25.631V204.723z"/>
			<path fill="#173273" d="M1136.317,121.422v44.498h8.188c10.561,0,19.963-0.828,28.213-2.492
				c8.246-1.66,15.039-4.152,20.379-7.476V61.082h25.811v52.509h22.428v20.647h-22.428v70.485h-25.811v-29.191
				c-5.223,3.205-11.541,5.668-18.955,7.387c-7.418,1.723-17.119,2.582-29.102,2.582h-58.561v-19.58h24.563v-44.498H1136.317z
				 M1146.106,152.037c2.018-10.084,3.619-20.558,4.807-31.416c1.186-10.857,1.779-20.38,1.779-28.567
				c0-1.424-0.266-2.492-0.801-3.204c-0.533-0.712-1.691-1.068-3.471-1.068h-58.025V67.312h71.73c6.289,0,10.441,1.335,12.461,4.005
				c2.016,2.67,3.025,6.616,3.025,11.836c-0.119,13.528-0.979,26.61-2.582,39.248c-1.602,12.638-3.531,23.763-5.783,33.374
				L1146.106,152.037z"/>
		</g>
	</g>
</g>
<rect id="_x3C_Slice_x3E_" fill="none" width="1241.935" height="266.338"/>
</svg>
